<svg id="Isolation_Mode" data-name="Isolation Mode" xmlns="http://www.w3.org/2000/svg" viewBox="0 0 140.411 17.519">
  <title>blog</title>
  <g>
    <path d="M1070.752,3537.1c0.429-.609.9-1.2,1.282-1.831q2.731-4.515,5.423-9.054a1,1,0,0,1,1.116-.686,0.966,0.966,0,0,1,.711,1.1,56.217,56.217,0,0,1-.347,8.35,48.258,48.258,0,0,0-.411,5.588c-0.051.9-.3,1.348-0.85,1.367s-0.875-.433-0.874-1.328a55.914,55.914,0,0,1,.675-8.044,9.537,9.537,0,0,0-.032-2.7,3.978,3.978,0,0,0-.463.531c-0.755,1.247-1.482,2.511-2.242,3.755-0.71,1.163-1.487,2.287-2.164,3.468-0.643,1.121-1.22,2.282-1.778,3.449a1.036,1.036,0,0,1-1.089.845,0.986,0.986,0,0,1-.737-1.08c-0.107-2.5-.2-5-0.335-7.5-0.048-.908-0.18-1.811-0.274-2.717l-0.22-.037a6.513,6.513,0,0,0-.277.7q-1.243,4.588-2.473,9.18c-0.132.489-.259,0.983-0.431,1.458a0.929,0.929,0,0,1-1.122.771,0.941,0.941,0,0,1-.525-1.267c0.348-1.35.739-2.689,1.106-4.034q1.46-5.367,2.917-10.735a2.443,2.443,0,0,1,.364-0.966,1.269,1.269,0,0,1,.92-0.472,1.106,1.106,0,0,1,.715.742q0.57,3.707,1.014,7.434c0.144,1.21.167,2.435,0.245,3.653Z" transform="translate(-1031.376 -3525.2)" style="fill: #1f8ceb"/>
    <path d="M1136.851,3532.528a19.863,19.863,0,0,1,1.305,2.35,4.628,4.628,0,0,1-2.028,5.983,10.685,10.685,0,0,1-6.283,1.486c-1.192-.1-1.431-0.471-1.3-1.685,0.518-4.647,1.975-9.09,2.929-13.641a1.406,1.406,0,0,1,1.326-1.269c1.29-.108,2.585-0.22,3.878-0.216a3.827,3.827,0,0,1,2.45,1.148,2.86,2.86,0,0,1,.349,3.034,5.57,5.57,0,0,1-1.918,2.313C1137.307,3532.205,1137.054,3532.386,1136.851,3532.528Zm-6.5,7.835a1.652,1.652,0,0,0,.3.179,2,2,0,0,0,.375.042,8,8,0,0,0,4.532-1.482,2.554,2.554,0,0,0,1.033-1.3,3.676,3.676,0,0,0-1.2-3.947,0.857,0.857,0,0,0-1.029-.159,15.493,15.493,0,0,1-2.109.855,1.383,1.383,0,0,0-1.1,1.248c-0.03.187-.1,0.367-0.133,0.553C1130.8,3537.707,1130.571,3539.067,1130.355,3540.363Zm1.706-7.724a17.353,17.353,0,0,0,4.74-2.227,3.755,3.755,0,0,0,.587-0.617,1.592,1.592,0,0,0,.508-1.716,2.013,2.013,0,0,0-1.614-.859,1.7,1.7,0,0,0-.379-0.014c-0.693.048-1.385,0.117-2.079,0.149a0.792,0.792,0,0,0-.8.758c-0.291,1.328-.623,2.647-0.929,3.971A3.271,3.271,0,0,0,1132.061,3532.639Z" transform="translate(-1031.376 -3525.2)" style="fill: #1f8ceb"/>
    <path d="M1042.483,3536.542c-0.228,1-.438,1.952-0.661,2.9a16.892,16.892,0,0,1-.437,1.651,0.888,0.888,0,0,1-1.146.712,0.9,0.9,0,0,1-.5-1.181c0.361-1.638.7-3.283,1.125-4.905,0.776-2.97,1.606-5.926,2.415-8.888,0.351-1.286.582-1.481,1.884-1.587a7.248,7.248,0,0,1,3.265.412c2.084,0.8,2.942,2,2.73,4.208a6.231,6.231,0,0,1-2.413,4.764,7.9,7.9,0,0,1-3.043,1.276c-0.274.059-.549,0.11-1,0.2,0.54,0.915,1,1.759,1.523,2.564,0.567,0.876,1.2,1.712,1.782,2.576a0.859,0.859,0,1,1-1.334,1.07,7.259,7.259,0,0,1-.89-1.11c-0.688-1.062-1.331-2.153-2.019-3.215A2.955,2.955,0,0,0,1042.483,3536.542Zm0.512-2.107c0.931-.1,1.655-0.123,2.357-0.262a4.569,4.569,0,0,0,4.1-4.522,1.946,1.946,0,0,0-1.257-2.2,5.385,5.385,0,0,0-2.3-.487,0.877,0.877,0,0,0-1.056.791c-0.091.525-.32,1.025-0.462,1.543C1043.93,3530.935,1043.493,3532.579,1042.995,3534.435Z" transform="translate(-1031.376 -3525.2)" style="fill: #1f8ceb"/>
    <path d="M1150.221,3537.5a30.3,30.3,0,0,1,1.19-7.012c0.138-.618.3-1.232,0.494-1.835a4.2,4.2,0,0,1,3.8-3.061,14.664,14.664,0,0,1,1.615-.026,2.169,2.169,0,0,1,2.222,1.727,8.04,8.04,0,0,1,.316,2.43,18.675,18.675,0,0,1-.561,3.739c-0.479,1.768-1.1,3.5-1.743,5.221a10.862,10.862,0,0,1-1.234,2.333,2.913,2.913,0,0,1-2.031,1.3c-2.326.3-3.687-.735-4.062-3.293A10.572,10.572,0,0,1,1150.221,3537.5Zm1.611-.206a15.3,15.3,0,0,0,.4,2.394,1.422,1.422,0,0,0,2.178.709,2.27,2.27,0,0,0,.739-0.718,8.866,8.866,0,0,0,.779-1.616c0.607-1.73,1.179-3.472,1.749-5.214a10.152,10.152,0,0,0,.363-4.413,1.111,1.111,0,0,0-1.475-1.158c-0.495.059-.965,0.293-1.457,0.4a1.932,1.932,0,0,0-1.531,1.515A51.04,51.04,0,0,0,1151.832,3537.294Z" transform="translate(-1031.376 -3525.2)" style="fill: #1f8ceb"/>
    <path d="M1052.605,3537.5a30.3,30.3,0,0,1,1.19-7.012c0.138-.618.3-1.232,0.494-1.835a4.2,4.2,0,0,1,3.8-3.061,14.664,14.664,0,0,1,1.615-.026,2.169,2.169,0,0,1,2.222,1.727,8.04,8.04,0,0,1,.316,2.43,18.675,18.675,0,0,1-.561,3.739c-0.479,1.768-1.1,3.5-1.743,5.221a10.862,10.862,0,0,1-1.234,2.333,2.913,2.913,0,0,1-2.031,1.3c-2.326.3-3.687-.735-4.062-3.293A10.572,10.572,0,0,1,1052.605,3537.5Zm1.611-.206a15.3,15.3,0,0,0,.4,2.394,1.422,1.422,0,0,0,2.178.709,2.27,2.27,0,0,0,.739-0.718,8.866,8.866,0,0,0,.779-1.616c0.607-1.73,1.179-3.472,1.749-5.214a10.152,10.152,0,0,0,.363-4.413,1.111,1.111,0,0,0-1.475-1.158c-0.495.059-.965,0.293-1.457,0.4a1.932,1.932,0,0,0-1.531,1.515A51.04,51.04,0,0,0,1054.217,3537.294Z" transform="translate(-1031.376 -3525.2)" style="fill: #1f8ceb"/>
    <path d="M1100.9,3533.4c1.5,0,2.92,0,4.338,0a0.71,0.71,0,0,0,.669-0.768q0.583-2.5,1.168-5a8.585,8.585,0,0,1,.3-1.1,0.9,0.9,0,0,1,1.106-.653,0.912,0.912,0,0,1,.6,1.214c-0.839,3.445-1.687,6.888-2.519,10.334-0.282,1.169-.5,2.355-0.794,3.521-0.223.881-.638,1.229-1.168,1.1-0.575-.142-0.722-0.662-0.5-1.6,0.351-1.511.682-3.028,1.01-4.544a3.773,3.773,0,0,0,.005-0.673,20.771,20.771,0,0,0-4.432.177,0.89,0.89,0,0,0-.526.559c-0.47,1.61-.9,3.233-1.336,4.853-0.041.152-.045,0.315-0.092,0.465a0.867,0.867,0,0,1-.952.738,0.891,0.891,0,0,1-.738-0.971,5.824,5.824,0,0,1,.219-1.307c0.58-2.14,1.219-4.265,1.762-6.414,0.512-2.025.929-4.073,1.39-6.111a5.55,5.55,0,0,1,.193-0.734,0.82,0.82,0,0,1,.963-0.587,0.86,0.86,0,0,1,.675,1,3.814,3.814,0,0,1-.1.56q-0.6,2.786-1.192,5.573A3.557,3.557,0,0,0,1100.9,3533.4Z" transform="translate(-1031.376 -3525.2)" style="fill: #1f8ceb"/>
    <path d="M1167.84,3535.992c-0.533-.07-0.877-0.1-1.215-0.163a0.81,0.81,0,0,1-.76-0.831,0.772,0.772,0,0,1,.769-0.819,13.833,13.833,0,0,1,2.454.167,0.942,0.942,0,0,1,.642,1.206c-0.223,1.725-.45,3.451-0.638,5.18-0.144,1.326-.646,1.583-1.744.881a12.227,12.227,0,0,1-1.668.692,3.265,3.265,0,0,1-4.156-3.113,12.82,12.82,0,0,1,.235-3.12c0.483-2.193,1.06-4.368,1.683-6.526a6.059,6.059,0,0,1,2.633-3.382,3.654,3.654,0,0,1,4.771.494,3.432,3.432,0,0,1,.941,2.607,0.868,0.868,0,1,1-1.723.106c-0.033-.186-0.02-0.381-0.054-0.567a1.821,1.821,0,0,0-2.694-1.319,4.034,4.034,0,0,0-2.042,2.171,28.632,28.632,0,0,0-1.983,8.959c-0.009,1.1.346,1.819,1.1,1.97a1.631,1.631,0,0,0,2.1-1.157c0.292-.7.685-1.359,0.981-2.059A10.842,10.842,0,0,0,1167.84,3535.992Z" transform="translate(-1031.376 -3525.2)" style="fill: #1f8ceb"/>
    <path d="M1112.924,3532.589l2.133-.511a6.563,6.563,0,0,1,.648-0.146,0.9,0.9,0,0,1,1.1.659,0.881,0.881,0,0,1-.68,1,4.28,4.28,0,0,1-.546.159c-0.83.2-1.67,0.371-2.488,0.612a1.083,1.083,0,0,0-.692.523c-0.47,1.737-.877,3.49-1.342,5.4,0.456,0,.819.011,1.182,0,0.949-.033,1.9-0.1,2.848-0.109a0.916,0.916,0,0,1,1.1.9,0.931,0.931,0,0,1-1.12.872c-1.392.045-2.783,0.1-4.174,0.147a4.026,4.026,0,0,1-.852-0.038,1,1,0,0,1-.9-1.219,10.434,10.434,0,0,1,.265-1.3q1.505-6.132,3.019-12.261a1.4,1.4,0,0,1,1.631-1.356c1.393-.045,2.785-0.089,4.179-0.107,0.871-.012,1.33.317,1.319,0.881-0.01.528-.428,0.848-1.253,0.882-1.139.046-2.28,0.077-3.419,0.065a0.777,0.777,0,0,0-.911.711C1113.666,3529.708,1113.308,3531.048,1112.924,3532.589Z" transform="translate(-1031.376 -3525.2)" style="fill: #1f8ceb"/>
    <path d="M1034.28,3527.294l-0.539,4.985c0.7-.231,1.227-0.4,1.748-0.576,0.39-.133.766-0.316,1.164-0.409a0.86,0.86,0,0,1,1.071.554,0.792,0.792,0,0,1-.484,1.017c-0.842.363-1.7,0.691-2.578,0.969-1.163.37-1.155,0.24-1.241,1.544q-0.191,2.892-.338,5.787c-0.046.9-.3,1.327-0.881,1.311s-0.875-.431-0.819-1.357q0.289-4.788.656-9.572c0.116-1.516.324-3.024,0.465-4.538,0.13-1.4.578-1.726,1.986-1.5,1.251,0.2,2.511.343,3.766,0.513,0.188,0.025.378,0.048,0.563,0.091a0.943,0.943,0,0,1,.872.951,0.866,0.866,0,0,1-1.042.738c-1.23-.106-2.455-0.277-3.682-0.422C1034.781,3527.357,1034.6,3527.333,1034.28,3527.294Z" transform="translate(-1031.376 -3525.2)" style="fill: #1f8ceb"/>
    <path d="M1093.376,3527.82l-2.858-.2a1.2,1.2,0,0,1-.557-0.055,1.4,1.4,0,0,1-.632-0.7,1.035,1.035,0,0,1,.472-0.811,2.271,2.271,0,0,1,1.105-.152c2.12,0.06,4.24.144,6.36,0.22,0.032,0,.063,0,0.1,0a1.036,1.036,0,0,1,1.2.934,1.049,1.049,0,0,1-1.2.84c-0.662.023-1.325,0-2.072,0a1.942,1.942,0,0,0-.209.414c-0.843,3.084-1.651,6.177-2.527,9.252-0.346,1.215-.834,2.389-1.269,3.577a1.575,1.575,0,0,1-.3.483,0.829,0.829,0,0,1-1.093.284,0.841,0.841,0,0,1-.4-1.06c0.05-.181.157-0.346,0.216-0.526,0.465-1.411.96-2.812,1.377-4.237,0.649-2.218,1.245-4.451,1.861-6.678C1093.1,3528.906,1093.225,3528.4,1093.376,3527.82Z" transform="translate(-1031.376 -3525.2)" style="fill: #1f8ceb"/>
    <path d="M1143.011,3540.615c1.024,0,1.939,0,2.854,0a1.431,1.431,0,0,1,.741.077,1.247,1.247,0,0,1,.566.766,1.714,1.714,0,0,1-.54.79,0.434,0.434,0,0,1-.273.057c-1.455.065-2.91,0.155-4.367,0.179a0.952,0.952,0,0,1-1.05-1.356c0.287-1.2.613-2.394,0.92-3.591,0.661-2.577,1.345-5.149,1.968-7.736,0.251-1.044.366-2.121,0.539-3.183,0.025-.156.009-0.321,0.048-0.472a0.83,0.83,0,0,1,1.651.1,3.578,3.578,0,0,1-.015.948c-0.237,1.307-.454,2.621-0.765,3.912-0.72,2.987-1.491,5.962-2.236,8.942A3.827,3.827,0,0,0,1143.011,3540.615Z" transform="translate(-1031.376 -3525.2)" style="fill: #1f8ceb"/>
  </g>
</svg>
