<svg xmlns="http://www.w3.org/2000/svg" viewBox="0 0 50 50">
    <path d="M2470.09,313.372a25,25,0,1,1,25-25A25.028,25.028,0,0,1,2470.09,313.372Z" transform="translate(-2445.09 -263.372)" style="fill: #f2b330"></path>
    <path d="M2462.932,289.517l-4.447,4.447a2,2,0,0,0,1.414,3.414h6.121Z" transform="translate(-2445.09 -263.372)" style="fill: #fff"></path>
    <path d="M2467.087,297.378h6.006l0.995-4.984a51.814,51.814,0,0,0,1-10.141V282.16c0-7.92-5-10.835-5-10.835s-5,2.913-5,10.829h0a51.814,51.814,0,0,0,1.015,10.335Zm2.985-19.008a2.785,2.785,0,0,1,2.923,2.34,0.54,0.54,0,0,1-.526.66h-0.007a0.521,0.521,0,0,1-.464-0.264c-0.158-.3-0.614-0.736-1.925-0.736s-1.758.426-1.911,0.722a0.526,0.526,0,0,1-.471.278h0a0.54,0.54,0,0,1-.527-0.657A2.764,2.764,0,0,1,2470.072,278.37Z" transform="translate(-2445.09 -263.372)" style="fill: #fff"></path>
    <path d="M2481.677,293.964l-4.434-4.434-3.083,7.848h6.1A2,2,0,0,0,2481.677,293.964Z" transform="translate(-2445.09 -263.372)" style="fill: #fff"></path>
    <path d="M2472.847,301.3a1.957,1.957,0,0,0-1.321-1.8l-1.437,2.872-1.436-2.873a1.958,1.958,0,0,0-1.321,1.8v0.024c0,1.523,2.758,4.945,2.758,4.945s2.758-3.422,2.758-4.945V301.3Z" transform="translate(-2445.09 -263.372)" style="fill: #fff"></path>
</svg>