<svg version="1.1" xmlns="http://www.w3.org/2000/svg" xmlns:xlink="http://www.w3.org/1999/xlink" x="0" y="0" viewBox="0 0 481 241" xml:space="preserve">
    <g><polygon fill="none" stroke="#248fed" stroke-width="9" stroke-linecap="round" stroke-linejoin="round" points="
    303.6364441,5.0752401 299.5914917,5.2196631 295.6273193,6.2262955 291.6436462,6.2378964 287.6713867,5.9439468
    283.6955872,5.9221334 279.7362976,5.6849284 275.7871094,6.0234408 271.8058472,5.810781 267.8240051,5.5886855
    263.849884,5.5428824 259.884491,5.8824396 255.9224701,6.4076886 251.9447937,5.8821702 247.9739075,6.079071
    244.0055084,6.5281506 240.0398712,6.5999699 236.0640106,5.9869523 232.0925446,6.4489851 228.1072083,6.5583959
    224.1697693,5.6670647 220.1669312,6.1048856 216.2234344,5.3660798 212.2286987,5.8050156 208.261322,5.131772
    204.292984,5.6260705 200.2946167,5.7610431 196.3581696,6.5315652 192.382843,5.9435086 188.4132385,6.7051215
    184.4346466,7.1345687 180.4604034,6.9618187 176.4944611,6.2569861 172.5211029,6.4651904 169.0216064,7.6054854
    165.4346619,8.4368343 161.8480682,9.1126919 159.1484528,11.6725016 156.2799683,14.0936365 153.0083923,16.0795765
    152.6763916,19.9441242 151.6888275,23.60252 149.8661041,27.0657692 149.7213287,31.0915737 149.5746613,35.0947914
    149.5397949,39.1094666 150.4083405,43.08181 149.6273193,47.1547813 149.9997101,51.1329765 149.8378601,55.1067467
    149.5507355,59.104763 149.4885712,63.1237144 149.4085083,67.1343307 149.5536041,71.1397018 149.6488495,75.1426392
    149.6285858,79.1389313 149.3981781,83.1418991 149.2727356,87.1469116 149.5359802,91.1480484 150.0427246,95.1571121
    150.1794128,99.1775665 149.2432709,103.1420212 149.7090302,107.1947479 148.4307861,111.1330414 148.227356,115.1354446
    148.6347351,119.1639557 147.9698029,123.1667252 148.8181305,127.1531067 149.3786469,131.1432953 149.0574646,135.1846466
    148.5105591,139.165741 148.1433716,143.1633453 148.1396484,147.1851807 147.9996033,151.1876373 147.8772583,155.1960907
    147.1634216,159.2730103 149.3162537,162.7035522 149.5574646,166.6130371 150.6297302,170.3863983 153.4198608,173.1229553
    156.5790253,175.3651428 158.8997345,178.3981934 162.5097198,179.5155334 166.3184967,179.6977844 170.0158386,180.3347168
    173.5900726,180.9242096 177.249939,180.6659851 180.8564453,181.0314789 184.4628601,181.319458 188.0814362,181.7912445
    191.7097778,181.7881927 195.3366394,181.4178772 198.9616089,182.1467285 202.6002197,181.3848267 206.1243591,181.9576721
    209.6524811,182.452301 213.3802948,181.8261414 215.0208435,185.4551697 217.3708801,188.5048828 219.4889221,191.728302
    220.3783569,195.6141357 222.0709686,199.1256104 223.611084,202.7068329 225.4901123,206.1121826 226.9445801,209.749939
    229.7542572,212.6745148 230.4908142,216.6407471 232.6454773,219.9285889 233.772522,223.6955719 235.3153687,227.4321289
    237.273941,230.9928894 239.195343,234.1198425 241.2603302,231.1355286 243.2136841,227.6272736 244.8146667,223.9360962
    246.2027893,220.3283539 246.9618073,216.4580383 249.4165802,213.339447 250.8026123,209.730835 252.6580353,206.3491058
    254.6611023,203.05336 256.1404114,199.4973907 257.473175,195.8694458 259.254303,192.4336395 260.9176941,188.9664764
    263.0184937,185.7417297 264.7892761,182.1434326 268.5612183,182.1251831 272.1567078,182.4891663 275.7578125,182.8810425
    279.3706665,182.6111298 282.9962769,182.6976166 286.5996094,182.1338654 290.2254028,182.8061981 293.8380127,182.0992889
    297.4605408,182.0372162 301.0697632,182.45401 304.6934204,182.4376984 308.2445374,181.9250946 311.8193054,181.0351105
    315.300293,179.5915527 319.2084961,179.1721802 321.8780823,176.4580383 324.4980774,173.7992096 327.4788818,171.579895
    328.2119446,167.8779907 329.6431885,164.3712616 330.5755005,160.7494049 330.081543,156.8308716 330.5707703,152.8333282
    330.4513245,148.8681793 330.954071,144.9263 330.6079407,140.9283905 330.5160828,136.9477692 331.2497253,133.0036621
    331.3357544,129.0331116 330.9763794,125.0609512 330.8617554,121.0919571 330.4502258,117.1295624 330.0707397,113.1544724
    329.8450623,109.171051 330.6872864,105.2194901 330.7091064,101.2466812 331.0457458,97.2901688 330.9182739,93.313446
    330.8536377,89.3414536 330.5662842,85.3850708 331.2039185,81.3826523 330.7236633,77.4344101 330.3477783,73.4603424
    330.6035156,69.4924698 330.9571838,65.5246124 330.4098511,61.5751801 330.0778198,57.6096649 330.2529602,53.6190109
    330.2409668,49.6413383 331.0118713,45.7008095 330.8796082,41.7049599 331.1940918,37.7200012 330.996521,33.7475967
    330.4233093,29.7917747 328.7158203,25.915596 327.7774048,21.7364044 325.570282,18.1461983 322.6296082,15.0725565
    319.5154724,12.0439825 315.8128662,9.8528929 311.8806458,8.1689978 307.889801,6.4081688 	"></polygon></g>
    <g><polyline fill="none" stroke="#248fed" stroke-width="9" stroke-linecap="round" stroke-linejoin="round" points="
    293.1461182,123.0704422 289.8748169,125.0211716 286.6290894,127.0231476 283.8259583,129.7530518 280.320343,131.3023224
    276.5304871,132.1459351 273.0280457,133.5804138 269.3792725,134.5357513 265.910675,136.3393097 262.2626953,137.4543304
    258.4189453,137.8822784 254.5911713,138.3964539 250.9309387,139.3537598 247.1713867,139.9360657 243.3262634,139.7342072
    239.5343781,139.6466827 235.7084045,139.8485107 231.9566803,139.0454712 228.1052551,139.0505066 224.285614,138.9064941
    220.5015564,138.273941 216.6018066,138.2342377 212.9771576,136.8151703 209.3898468,135.453537 205.7280579,134.3217316
    202.4069214,132.296402 198.6083221,131.4743195 194.8802948,130.3739777 191.867569,127.9123459 188.4595947,126.1234512
    185.5716705,123.5229416 	"></polyline></g>
    <g>
    <g>
        <g>
            <polyline fill="none" stroke="#4689C8" stroke-width="8.7799702" stroke-linecap="round" stroke-linejoin="round" points="
                385.2160339,62.2507858 388.5536194,61.1638565 391.9798889,60.4519272 395.6358032,59.8345795 399.2771912,56.5201378
                403.4522705,54.5451927 406.8363342,51.8097649 411.2163391,51.7870712 414.3120117,49.810833 417.959198,49.0285492
                421.2688599,47.4265785 			"></polyline>
        </g>
        <g>
            <polyline fill="none" stroke="#4689C8" stroke-width="8.7799702" stroke-linecap="round" stroke-linejoin="round" points="
                394.7800293,95.4113007 396.6540833,97.4080124 401.117218,95.684227 405.6052246,96.694313 410.646759,95.7547302
                414.3763123,94.1786194 418.3682556,94.6025696 421.8095703,96.5691528 425.7580261,97.0737915 429.0892639,97.4018478
                432.2709045,96.6315231 435.4353333,96.0654221 439.9856567,95.9735107 444.3061523,97.929184 448.4637451,96.9965134
                452.5302734,97.2818604 456.2641296,98.2392883 460.1643066,97.629509 463.9771423,98.4054413 467.7895203,97.9924393 			"></polyline>
        </g>
        <g>
            <polyline fill="none" stroke="#4689C8" stroke-width="8.7799702" stroke-linecap="round" stroke-linejoin="round" points="
                382.1322937,127.5544434 385.3568726,129.1095123 388.2290039,131.30513 391.8405457,132.2077484 394.720459,135.2126617
                398.1818542,137.5220337 400.612793,141.0261688 403.5728455,142.9170074 405.4966736,145.8205414 408.64151,147.4217834
                412.3450012,148.7310028 415.2701416,151.4401855 418.9644775,152.5564575 419.347168,153.4940948 			"></polyline>
        </g>
        <g>
            <polyline fill="none" stroke="#4689C8" stroke-width="8.7799702" stroke-linecap="round" stroke-linejoin="round" points="
                93.526413,63.0169373 90.5804901,60.7201042 86.9744186,60.1889496 83.394928,59.7934608 80.5819016,55.0986595
                75.1714783,55.5358658 71.6188049,53.2925224 67.7271194,51.9502258 64.1269836,51.1561241 61.4953918,48.6227608
                57.9221992,47.7943764 			"></polyline>
        </g>
        <g>
            <polyline fill="none" stroke="#4689C8" stroke-width="8.7799702" stroke-linecap="round" stroke-linejoin="round" points="
                85.0673828,96.1295547 82.3268967,97.0982742 77.863533,97.4758148 73.284111,97.360672 68.4538574,95.5755997
                64.7536469,93.3662567 60.7985992,95.4290695 57.0974121,96.1316681 53.2471428,97.1170731 50.0464859,96.5541153
                46.9072952,97.1052856 43.7478065,97.6942139 39.1956291,96.5015717 34.6689034,97.3383713 30.5705318,97.0908051
                26.495512,98.0595245 22.6752701,97.4616699 18.8519268,96.7827454 15.0806417,98.0517807 11.2242889,97.9639816 			"></polyline>
        </g>
        <g>
            <polyline fill="none" stroke="#4689C8" stroke-width="8.7799702" stroke-linecap="round" stroke-linejoin="round" points="
                95.9857864,126.1891785 93.8330231,129.2557526 90.6187973,131.0805969 87.8143997,133.3397522 84.8099518,135.9817505
                81.2906723,138.1204071 78.3302994,141.0023193 76.2157898,143.8862915 73.1302261,145.5912628 70.7071762,148.1593933
                67.8001175,150.6360168 64.0236435,151.6117554 61.0573502,154.058197 59.9236641,153.7345886 			"></polyline>
        </g>
    </g>
    <g>
        <g>
            <polyline fill="none" stroke="#2E368F" stroke-width="9" stroke-linecap="round" stroke-linejoin="round" points="
                385.2160339,62.2507858 388.5536194,61.1638565 391.9798889,60.4519272 395.6358032,59.8345795 399.2771912,56.5201378
                403.4522705,54.5451927 406.8363342,51.8097649 411.2163391,51.7870712 414.3120117,49.810833 417.959198,49.0285492
                421.2688599,47.4265785 			"></polyline>
            <polyline fill="none" stroke="#2E368F" stroke-width="9" stroke-linecap="round" stroke-linejoin="round" points="
                385.2160339,62.2507858 388.5536194,61.1638565 391.9798889,60.4519272 395.6358032,59.8345795 399.2771912,56.5201378
                403.4522705,54.5451927 406.8363342,51.8097649 411.2163391,51.7870712 414.3120117,49.810833 417.959198,49.0285492
                421.2688599,47.4265785 			"></polyline>
        </g>
        <g>
            <polyline fill="none" stroke="#2E368F" stroke-width="9" stroke-linecap="round" stroke-linejoin="round" points="
                394.7800293,95.4113007 396.6540833,97.4080124 401.117218,95.684227 405.6052246,96.694313 410.646759,95.7547302
                414.3763123,94.1786194 418.3682556,94.6025696 421.8095703,96.5691528 425.7580261,97.0737915 429.0892639,97.4018478
                432.2709045,96.6315231 435.4353333,96.0654221 439.9856567,95.9735107 444.3061523,97.929184 448.4637451,96.9965134
                452.5302734,97.2818604 456.2641296,98.2392883 460.1643066,97.629509 463.9771423,98.4054413 467.7895203,97.9924393 			"></polyline>
            <polyline fill="none" stroke="#2E368F" stroke-width="9" stroke-linecap="round" stroke-linejoin="round" points="
                394.7800293,95.4113007 396.6540833,97.4080124 401.117218,95.684227 405.6052246,96.694313 410.646759,95.7547302
                414.3763123,94.1786194 418.3682556,94.6025696 421.8095703,96.5691528 425.7580261,97.0737915 429.0892639,97.4018478
                432.2709045,96.6315231 435.4353333,96.0654221 439.9856567,95.9735107 444.3061523,97.929184 448.4637451,96.9965134
                452.5302734,97.2818604 456.2641296,98.2392883 460.1643066,97.629509 463.9771423,98.4054413 467.7895203,97.9924393 			"></polyline>
        </g>
        <g>
            <polyline fill="none" stroke="#2E368F" stroke-width="9" stroke-linecap="round" stroke-linejoin="round" points="
                382.1322937,127.5544434 385.3568726,129.1095123 388.2290039,131.30513 391.8405457,132.2077484 394.720459,135.2126617
                398.1818542,137.5220337 400.612793,141.0261688 403.5728455,142.9170074 405.4966736,145.8205414 408.64151,147.4217834
                412.3450012,148.7310028 415.2701416,151.4401855 418.9644775,152.5564575 419.347168,153.4940948 			"></polyline>
            <polyline fill="none" stroke="#2E368F" stroke-width="9" stroke-linecap="round" stroke-linejoin="round" points="
                382.1322937,127.5544434 385.3568726,129.1095123 388.2290039,131.30513 391.8405457,132.2077484 394.720459,135.2126617
                398.1818542,137.5220337 400.612793,141.0261688 403.5728455,142.9170074 405.4966736,145.8205414 408.64151,147.4217834
                412.3450012,148.7310028 415.2701416,151.4401855 418.9644775,152.5564575 419.347168,153.4940948 			"></polyline>
        </g>
        <g>
            <polyline fill="none" stroke="#2E368F" stroke-width="9" stroke-linecap="round" stroke-linejoin="round" points="
                93.526413,63.0169373 90.5804901,60.7201042 86.9744186,60.1889496 83.394928,59.7934608 80.5819016,55.0986595
                75.1714783,55.5358658 71.6188049,53.2925224 67.7271194,51.9502258 64.1269836,51.1561241 61.4953918,48.6227608
                57.9221992,47.7943764 			"></polyline>
            <polyline fill="none" stroke="#2E368F" stroke-width="9" stroke-linecap="round" stroke-linejoin="round" points="
                93.526413,63.0169373 90.5804901,60.7201042 86.9744186,60.1889496 83.394928,59.7934608 80.5819016,55.0986595
                75.1714783,55.5358658 71.6188049,53.2925224 67.7271194,51.9502258 64.1269836,51.1561241 61.4953918,48.6227608
                57.9221992,47.7943764 			"></polyline>
        </g>
        <g>
            <polyline fill="none" stroke="#2E368F" stroke-width="9" stroke-linecap="round" stroke-linejoin="round" points="
                85.0673828,96.1295547 82.3268967,97.0982742 77.863533,97.4758148 73.284111,97.360672 68.4538574,95.5755997
                64.7536469,93.3662567 60.7985992,95.4290695 57.0974121,96.1316681 53.2471428,97.1170731 50.0464859,96.5541153
                46.9072952,97.1052856 43.7478065,97.6942139 39.1956291,96.5015717 34.6689034,97.3383713 30.5705318,97.0908051
                26.495512,98.0595245 22.6752701,97.4616699 18.8519268,96.7827454 15.0806417,98.0517807 11.2242889,97.9639816 			"></polyline>
            <polyline fill="none" stroke="#2E368F" stroke-width="9" stroke-linecap="round" stroke-linejoin="round" points="
                85.0673828,96.1295547 82.3268967,97.0982742 77.863533,97.4758148 73.284111,97.360672 68.4538574,95.5755997
                64.7536469,93.3662567 60.7985992,95.4290695 57.0974121,96.1316681 53.2471428,97.1170731 50.0464859,96.5541153
                46.9072952,97.1052856 43.7478065,97.6942139 39.1956291,96.5015717 34.6689034,97.3383713 30.5705318,97.0908051
                26.495512,98.0595245 22.6752701,97.4616699 18.8519268,96.7827454 15.0806417,98.0517807 11.2242889,97.9639816 			"></polyline>
        </g>
        <g>
            <polyline fill="none" stroke="#2E368F" stroke-width="9" stroke-linecap="round" stroke-linejoin="round" points="
                95.9857864,126.1891785 93.8330231,129.2557526 90.6187973,131.0805969 87.8143997,133.3397522 84.8099518,135.9817505
                81.2906723,138.1204071 78.3302994,141.0023193 76.2157898,143.8862915 73.1302261,145.5912628 70.7071762,148.1593933
                67.8001175,150.6360168 64.0236435,151.6117554 61.0573502,154.058197 59.9236641,153.7345886 			"></polyline>
            <polyline fill="none" stroke="#2E368F" stroke-width="9" stroke-linecap="round" stroke-linejoin="round" points="
                95.9857864,126.1891785 93.8330231,129.2557526 90.6187973,131.0805969 87.8143997,133.3397522 84.8099518,135.9817505
                81.2906723,138.1204071 78.3302994,141.0023193 76.2157898,143.8862915 73.1302261,145.5912628 70.7071762,148.1593933
                67.8001175,150.6360168 64.0236435,151.6117554 61.0573502,154.058197 59.9236641,153.7345886 			"></polyline>
        </g>
    </g>
    </g>
</svg>