<svg version="1.1" xmlns="http://www.w3.org/2000/svg" xmlns:xlink="http://www.w3.org/1999/xlink" x="0px" y="0px" viewBox="0 0 100 80" enable-background="new 0 0 100 80" xml:space="preserve" class="svg__inapp">
    <g class="svg__inapp-mobile">
    <polygon id="XMLID_27_" fill="none" stroke="#248fed" stroke-width="2" stroke-linecap="round" stroke-linejoin="round" points="
    87.5,45 86.5,44.8 85.5,44.8 84.6,44.8 83.6,44.7 82.7,44.4 81.7,44.4 80.7,44.4 79.8,44.2 78.8,44.2 77.9,44.1 76.9,44 75.9,44.1
    75,44 74,44 73.1,43.7 72.1,43.8 71.1,43.8 70.2,43.5 69.2,43.6 68.2,43.4 67.3,43.3 66.3,43.2 65.3,43.4 64.1,43.2 64,42.4
    64,41.4 64.1,40.4 64.4,39.5 64.4,38.6 64.4,37.6 64.5,36.7 64.5,35.8 64.5,34.8 64.5,33.9 64.5,32.9 64.6,32 64.5,31.1 64.6,30.1
    64.6,29.2 64.8,28.3 64.9,27.3 64.9,26.4 65,25.5 64.9,24.5 64.8,23.6 64.9,22.7 64.9,21.7 64.8,20.8 64.8,19.8 65,18.9 64.9,18
    64.9,17 64.9,16.1 64.9,15.2 65,14.2 65,13.3 65,12.4 65.1,11.4 65,10.5 65.3,9.6 65.1,8.6 65.2,7.7 65.2,6.7 65.2,5.8 65.3,4.8
    65.2,3.8 66.1,4.1 67,4 67.9,4 68.8,4 69.7,4.1 70.6,4.2 71.4,4.4 72.3,4.5 73.2,4.6 74.1,4.5 75,4.8 75.9,4.8 76.7,4.9 77.6,4.9
    78.5,5 79.4,5 80.3,5.2 81.2,5.3 82.1,5.3 83,5.2 83.8,5.3 84.7,5.3 85.6,5.4 86.5,5.6 87.4,5.7 88.3,5.7 89.1,5.7 89,6.6 89,7.5
    89,8.4 89,9.4 89.1,10.3 88.8,11.2 88.8,12.2 88.8,13.1 88.8,14 88.7,15 88.5,15.9 88.5,16.8 88.7,17.8 88.5,18.7 88.6,19.7
    88.5,20.6 88.4,21.5 88.6,22.5 88.5,23.4 88.4,24.3 88.4,25.3 88.5,26.2 88.4,27.2 88.1,28.1 88.1,29 88.1,30 88.2,30.9 88.1,31.8
    88,32.8 87.8,33.7 87.9,34.6 88,35.6 88,36.5 87.9,37.5 87.7,38.4 87.6,39.3 87.8,40.3 87.5,41.2 87.6,42.1 87.6,43.1 87.5,44 	"></polygon>
    <polygon id="XMLID_25_" fill="none" stroke="#248fed" stroke-width="2" stroke-linecap="round" stroke-linejoin="round" points="
    89.3,10.1 88.4,9.8 87.4,9.9 86.5,9.8 85.6,9.8 84.7,9.6 83.9,9.6 83,9.6 82.1,9.5 81.2,9.3 80.3,9.4 79.4,9.4 78.5,9.3 77.7,9.2
    76.8,9.1 75.9,9 75,9.1 74.1,8.8 73.2,8.9 72.3,8.8 71.4,8.7 70.6,8.6 69.7,8.6 68.8,8.4 67.9,8.4 67,8.2 66.2,8.2 65.2,8.2
    65.3,7.1 65.4,6 65.2,5 65.3,3.9 66.1,3.9 67,4 67.9,4 68.8,4.2 69.7,4.4 70.5,4.4 71.4,4.4 72.3,4.5 73.2,4.6 74.1,4.5 75,4.5
    75.9,4.4 76.8,4.5 77.6,4.7 78.5,5 79.4,4.9 80.3,4.9 81.2,5.1 82.1,5.1 83,5 83.8,5.2 84.8,5.2 85.6,5.5 86.5,5.6 87.4,5.6
    88.3,5.7 89.2,5.6 89,6.3 89,7 89.1,7.8 89.1,8.5 89.2,9.3 	"></polygon>
    <polygon id="XMLID_23_" fill="none" stroke="#248fed" stroke-width="2" stroke-linecap="round" stroke-linejoin="round" points="
    87.3,44.8 86.4,44.9 85.5,44.7 84.6,44.7 83.6,44.8 82.7,44.7 81.7,44.6 80.7,44.4 79.8,44.5 78.8,44.4 77.8,44.4 76.9,44.4
    75.9,44.1 75,43.9 74,44 73,43.9 72.1,43.8 71.1,43.5 70.2,43.5 69.2,43.5 68.2,43.6 67.3,43.4 66.3,43.4 65.4,43.2 64.5,43.1
    64.5,42.2 64.6,41.2 64.5,40.3 64.5,39.3 64.3,38.3 64.6,37.4 65.4,37.4 66.3,37.4 67.3,37.5 68.2,37.6 69.2,37.5 70.2,37.6
    71.1,37.6 72.1,37.7 73,37.9 74,38 75,38 75.9,38 76.9,38 77.8,38.2 78.8,38.2 79.8,38.2 80.7,38.4 81.7,38.7 82.7,38.6 83.6,38.7
    84.6,38.6 85.5,38.8 86.5,38.8 87.5,38.9 87.3,39.7 87.6,40.5 87.6,41.2 87.4,42 87.3,42.9 87.5,43.9 	"></polygon>
    </g>
    <g class="svg__inapp-desktop">
    <polygon id="XMLID_21_" fill="none" stroke="#2e3192" stroke-width="2" stroke-linecap="round" stroke-linejoin="round" points="
    78.6,70.3 77.6,70.2 76.7,70.3 75.8,70 74.9,70.2 74,70.2 73.1,70.2 72.2,70.1 71.3,70.2 70.3,70.2 69.4,70 68.5,70 67.6,70.1
    66.7,70.1 65.8,70.1 64.9,70.2 64,70.3 63.1,70.2 62.2,70.1 61.3,70.1 60.4,70.1 59.5,70.3 58.6,70.2 57.7,70.3 56.8,70.3
    55.9,70.2 55,70.2 54.1,70.1 53.2,70.3 52.3,70.3 51.4,70.4 50.5,70.2 49.5,70.3 48.6,70.3 47.7,70.2 46.8,70.2 45.9,70.2 45,70.1
    44.1,70.2 43.2,70.4 42.3,70.3 41.4,70.2 40.5,70.1 39.6,70.2 38.7,70.3 37.8,70.3 36.9,70.3 36,70.1 35.1,70.1 34.2,70.2
    33.3,70.3 32.4,70.1 31.4,70.2 30.5,70 29.6,70.1 28.7,70.3 27.8,70.1 26.9,70.2 26,70.1 25.1,70.1 24.2,70.1 23.3,70.1 22.4,70.4
    21.5,70.4 20.6,70.4 19.7,70.2 18.8,70.3 17.9,70.1 17,70.3 16,70.2 15.1,70.2 14.2,70.4 13.3,70.4 12.4,70.4 11.5,70.4 10.6,70.3
    10.7,69.4 10.6,68.5 10.7,67.6 10.8,66.7 10.7,65.8 10.9,64.9 10.8,64 10.9,63.1 11,62.3 11.2,61.4 11.1,60.5 11.2,59.6 11.3,58.7
    11.2,57.8 11.3,56.9 11.1,56 11.4,55.1 11.5,54.3 11.4,53.4 11.3,52.5 11.3,51.6 11.6,50.7 11.6,49.8 11.7,48.9 11.7,48 11.6,47.1
    11.6,46.2 11.5,45.3 11.7,44.5 11.7,43.6 11.7,42.7 11.9,41.8 12.2,40.9 12.2,40 12,39.1 12.1,38.2 12.2,37.3 12.2,36.5 12.2,35.6
    12.3,34.7 12.3,33.8 12.5,32.9 12.4,32 12.5,31.1 12.6,30.2 12.4,29.3 12.5,28.4 12.4,27.6 12.6,26.7 12.6,25.8 12.7,24.9 12.7,24
    12.9,23.1 13,22.2 13,21.3 12.9,20.5 13.1,19.7 13.9,19.5 14.8,19.4 15.7,19.5 16.6,19.6 17.5,19.5 18.5,19.5 19.4,19.6 20.3,19.4
    21.2,19.5 22.1,19.4 23.1,19.4 24,19.5 24.9,19.6 25.8,19.5 26.8,19.8 27.7,19.7 28.6,19.5 29.5,19.3 30.4,19.4 31.3,19.6
    32.3,19.7 33.2,19.6 34.1,19.5 35,19.7 35.9,19.5 36.9,19.5 37.8,19.4 38.7,19.4 39.6,19.5 40.6,19.6 41.5,19.4 42.4,19.7
    43.3,19.5 44.2,19.7 45.2,19.5 46.1,19.4 47,19.5 47.9,19.5 48.8,19.5 49.8,19.5 50.7,19.6 51.6,19.5 52.5,19.4 53.4,19.3
    54.4,19.5 55.3,19.5 56.2,19.6 57.1,19.6 58.1,19.6 59,19.6 59.9,19.6 60.8,19.6 61.7,19.6 62.7,19.8 63.6,19.6 64.5,19.5
    65.4,19.4 66.4,19.4 67.3,19.6 68.2,19.6 69.1,19.6 70,19.7 71,19.7 71.9,19.5 72.8,19.5 73.7,19.5 74.6,19.6 75.6,19.6 76.5,19.4
    77.4,19.5 78.3,19.7 79.2,19.6 79.1,20.5 79.1,21.3 79.2,22.2 79.2,23.1 79.1,24 79.1,24.9 79.3,25.7 79.3,26.6 79.2,27.5
    79.2,28.4 79.1,29.3 79.2,30.2 78.9,31.1 79.1,32 79,32.9 78.9,33.8 79.2,34.6 79,35.5 79,36.4 79.1,37.3 78.9,38.2 78.9,39.1
    79,40 79,40.9 78.8,41.8 79,42.6 79.1,43.5 79.1,44.4 79.1,45.3 78.9,46.2 78.8,47.1 79,48 78.8,48.9 78.8,49.8 78.7,50.6
    78.8,51.5 78.8,52.4 78.8,53.3 78.9,54.2 78.6,55.1 78.6,56 78.5,56.9 78.7,57.8 78.5,58.7 78.7,59.5 78.6,60.4 78.8,61.3
    78.7,62.2 78.6,63.1 78.7,64 78.6,64.9 78.5,65.8 78.6,66.7 78.5,67.6 78.7,68.5 78.5,69.4 	"></polygon>
    <polygon id="XMLID_19_" fill="none" stroke="#2e3192" stroke-width="2" stroke-linecap="round" stroke-linejoin="round" points="
    79.4,25.9 78.4,26 77.5,25.8 76.5,25.9 75.6,25.9 74.7,25.8 73.7,25.6 72.8,25.9 71.9,25.8 71,26 70.1,25.8 69.1,25.7 68.2,25.8
    67.3,25.8 66.4,25.7 65.5,25.7 64.5,25.7 63.6,25.7 62.7,25.6 61.8,25.6 60.9,25.6 59.9,25.7 59,25.6 58.1,25.7 57.2,25.6
    56.3,25.8 55.3,25.6 54.4,25.5 53.5,25.6 52.6,25.5 51.7,25.8 50.7,25.7 49.8,25.8 48.9,25.8 48,25.8 47.1,25.7 46.1,25.7
    45.2,25.8 44.3,25.8 43.4,26 42.5,26 41.5,25.9 40.6,25.9 39.7,25.9 38.8,25.7 37.8,26 36.9,26 36,26 35.1,25.9 34.2,25.8
    33.2,25.9 32.3,25.8 31.4,25.8 30.5,25.9 29.5,25.7 28.6,25.8 27.7,25.9 26.8,26 25.9,25.7 24.9,25.8 24,25.7 23.1,25.7 22.2,25.7
    21.3,25.9 20.3,25.7 19.4,25.6 18.5,25.6 17.6,25.6 16.6,25.6 15.7,25.7 14.8,25.8 13.9,25.9 13,25.7 13,25 13.1,24.2 13,23.4
    13.1,22.7 13.1,21.9 13.1,21.1 13,20.4 13,19.5 13.9,19.7 14.8,19.5 15.7,19.4 16.6,19.5 17.5,19.4 18.5,19.4 19.4,19.5 20.3,19.6
    21.2,19.6 22.1,19.6 23.1,19.5 24,19.4 24.9,19.4 25.8,19.7 26.7,19.6 27.7,19.5 28.6,19.7 29.5,19.6 30.4,19.6 31.4,19.7
    32.3,19.7 33.2,19.7 34.1,19.5 35,19.6 36,19.6 36.9,19.4 37.8,19.4 38.7,19.3 39.6,19.4 40.6,19.3 41.5,19.5 42.4,19.6 43.3,19.7
    44.2,19.6 45.2,19.8 46.1,19.5 47,19.6 47.9,19.7 48.8,19.6 49.8,19.5 50.7,19.5 51.6,19.4 52.5,19.5 53.4,19.4 54.4,19.4
    55.3,19.5 56.2,19.5 57.1,19.5 58.1,19.5 59,19.5 59.9,19.3 60.8,19.3 61.7,19.5 62.7,19.4 63.6,19.4 64.5,19.4 65.4,19.5
    66.4,19.4 67.3,19.6 68.2,19.5 69.1,19.7 70,19.7 71,19.6 71.9,19.5 72.8,19.5 73.7,19.3 74.6,19.5 75.6,19.3 76.5,19.4 77.4,19.6
    78.4,19.4 79.2,19.6 79.3,20.3 79.1,21.1 79.2,21.9 79.1,22.7 79.4,23.4 79.2,24.3 79.4,25.1 	"></polygon>
    <polygon id="XMLID_17_" fill="none" stroke="#2e3192" stroke-width="2" stroke-linecap="round" stroke-linejoin="round" points="
    78.4,70.1 77.6,70.1 76.7,70.1 75.8,70.2 74.9,70.3 74,70.3 73.1,70.3 72.2,70.1 71.3,70.3 70.3,70.2 69.4,70.3 68.5,70.4
    67.6,70.4 66.7,70.3 65.8,70.3 64.9,70.2 64,70.1 63.1,70.2 62.2,70.2 61.3,70.3 60.4,70.3 59.5,70.4 58.6,70.3 57.7,70.4
    56.8,70.1 55.9,70.3 55,70.2 54.1,70.2 53.2,70.2 52.3,70.4 51.4,70.3 50.5,70.4 49.6,70.2 48.6,70.2 47.7,70.3 46.8,70.3
    45.9,70.1 45,70.2 44.1,70.3 43.2,70.2 42.3,70.3 41.4,70.2 40.5,70.3 39.6,70.3 38.7,70.3 37.8,70 36.9,70.1 36,70.2 35.1,70.3
    34.2,70.3 33.3,70.3 32.4,70.3 31.5,70.2 30.5,70.1 29.6,70 28.7,70.1 27.8,70.1 26.9,70.3 26,70.2 25.1,70.4 24.2,70.4 23.3,70.2
    22.4,70.4 21.5,70.5 20.6,70.4 19.7,70.2 18.8,70.4 17.9,70.3 17,70.2 16,70.2 15.1,70.4 14.2,70.4 13.3,70.3 12.4,70.2 11.5,70.3
    10.5,70.4 10.5,69.5 10.5,68.7 10.5,67.9 10.6,67.1 10.6,66.3 10.6,65.6 10.6,64.8 10.6,64 11.5,64 12.4,64 13.3,63.8 14.2,64
    15.1,64.1 16,64.1 16.9,64.2 17.8,64.1 18.7,64 19.6,63.9 20.5,63.8 21.5,64 22.4,63.9 23.3,64 24.2,63.9 25.1,64.1 26,64
    26.9,64.2 27.8,64 28.7,63.9 29.6,63.8 30.5,63.9 31.4,63.9 32.3,63.9 33.2,63.8 34.1,63.8 35,64 35.9,63.9 36.8,64 37.7,63.8
    38.6,64.1 39.5,63.9 40.4,63.8 41.3,64 42.3,63.9 43.2,63.9 44.1,64 45,64 45.9,64 46.8,64.1 47.7,63.9 48.6,64.1 49.5,64.1
    50.4,63.8 51.3,64 52.2,63.9 53.1,63.9 54,64.2 54.9,63.9 55.8,64 56.7,63.8 57.6,64 58.5,64 59.5,64.1 60.4,64 61.3,64 62.2,64.1
    63.1,63.9 64,63.9 64.9,63.7 65.8,64 66.7,64 67.6,63.9 68.5,64.1 69.4,64.1 70.3,64.1 71.2,64.1 72.1,63.9 73,64 74,63.9
    74.9,64.1 75.8,64.1 76.7,64.1 77.6,64.2 78.4,64.1 78.4,64.8 78.4,65.6 78.6,66.3 78.6,67.1 78.5,67.9 78.6,68.7 78.5,69.5 	"></polygon>
    <polygon id="XMLID_15_" fill="none" stroke="#2e3192" stroke-width="2" stroke-linecap="round" stroke-linejoin="round" points="
    51.3,76.6 50.5,76.6 49.7,76.6 49,76.4 48.2,76.4 47.2,76.4 46.2,76.4 45.3,76.6 44.3,76.4 43.3,76.5 42.3,76.4 41.3,76.4
    40.3,76.3 39.3,76.3 38.4,76.5 37.4,76.5 36.5,76.3 36.5,75.6 36.3,74.9 36.3,74.1 36.2,73.4 36,72.6 36,71.9 36.4,71.1 36.4,70.4
    37.4,70.2 38.3,70.4 39.3,70.2 40.3,70.3 41.3,70.3 42.3,70.3 43.3,70.3 44.3,70.3 45.2,70.2 46.2,70.4 47.2,70.2 48.2,70.5
    49.2,70.3 50.1,70.4 51.1,70.3 51.1,71.1 51.2,71.8 51.4,72.6 51.2,73.4 51.2,74.2 51.4,75 51.2,75.8 	"></polygon>
    <polyline id="XMLID_13_" fill="none" stroke="#2e3192" stroke-width="2" stroke-linecap="round" stroke-linejoin="round" points="
    24.8,76.3 25.6,76.4 26.5,76.6 27.5,76.6 28.4,76.5 29.3,76.7 30.3,76.6 31.2,76.6 32.1,76.5 33.1,76.6 34,76.4 34.9,76.5
    35.9,76.4 36.8,76.4 37.7,76.3 38.7,76.3 39.6,76.5 40.5,76.6 41.5,76.7 42.4,76.6 43.4,76.7 44.3,76.4 45.2,76.5 46.2,76.4
    47.1,76.5 48,76.5 49,76.3 49.9,76.4 50.9,76.3 51.8,76.5 52.7,76.5 53.7,76.3 54.6,76.5 55.5,76.4 56.5,76.4 57.4,76.5 58.3,76.5
    59.3,76.6 60.2,76.6 61.2,76.6 62.1,76.4 63,76.6 64,76.4 64.9,76.4 65.8,76 67,76 	"></polyline>
    </g>
</svg>