<svg version="1.1" id="Layer_1" xmlns="http://www.w3.org/2000/svg" xmlns:xlink="http://www.w3.org/1999/xlink" x="0px" y="0px"
	 viewBox="0 0 100 3" enable-background="new 0 0 100 3" xml:space="preserve">
<g>
	<polyline fill="none" stroke="#248fed" stroke-width="1.75" stroke-linecap="round" stroke-linejoin="round" points="-166.6,1.5
		-165.7,1.5 -164.7,1.5 -163.8,1.2 -162.9,1.5 -162,1.5 -161.1,1.6 -160.2,1.5 -159.3,1.4 -158.3,1.5 -157.4,1.2 -156.5,1.5
		-155.6,1.2 -154.7,1.4 -153.8,1.4 -152.8,1.2 -151.9,1.4 -151,1.5 -150.1,1.2 -149.2,1.4 -148.2,1.4 -147.3,1 -146.4,1.1
		-145.5,1.2 -144.6,1 -143.7,1.2 -142.7,1.1 -141.8,1.4 -140.9,1.2 -140,1.4 -139.1,1.4 -138.2,1.5 -137.2,1.2 -136.3,1.5
		-135.4,1.4 -134.5,1 -133.6,1 -132.7,1.1 -131.8,1.1 -130.8,1.1 -129.9,1.2 -129,1.2 -128.1,1.4 -127.2,1.1 -126.3,1.1 -125.3,1.1
		-124.4,1.1 -123.5,1.2 -122.6,1.2 -121.7,1.1 -120.8,1.1 -119.8,1.1 -118.9,1.1 -118,1.2 -117.1,1.4 -116.2,1.4 -115.2,1.4
		-114.3,1.4 -113.4,1.2 -112.5,1.5 -111.6,1.4 -110.7,1.4 -109.7,1.4 -108.8,1.2 -107.9,1.4 -107,1.1 -106.1,1.1 -105.2,1.2
		-104.2,1.2 -103.3,1.4 -102.4,1.2 -101.5,1.5 -100.6,1.2 -99.6,1.2 -98.7,1.2 -97.8,1.4 -96.9,1.5 -96,1.5 -95.1,1.4 -94.1,1.5
		-93.2,1.2 -92.3,1.4 -91.4,1.2 -90.5,1.2 -89.6,1.4 -88.6,1.4 -87.7,1.2 -86.8,1.2 -85.9,1.5 -85,1.5 -84.1,1.2 -83.1,1.2
		-82.2,1.2 -81.3,1.4 -80.4,1.2 -79.5,1.4 -78.5,1.2 -77.6,1.4 -76.7,1.2 -75.8,1.4 -74.9,1.5 -74,1.5 -73,1.5 -72.1,1.5 -71.2,1.5
		-70.3,1.5 -69.4,1.5 -68.5,1.6 -67.5,1.5 -66.6,1.5 -65.7,1.4 -64.8,1.4 -63.8,1.4 -62.9,1.5 -62,1.6 -61.1,1.4 -60.2,1.5
		-59.2,1.4 -58.3,1.5 -57.4,1.5 -56.5,1.8 -55.6,1.6 -54.7,1.5 -53.8,1.5 -52.9,1.8 -51.9,1.8 -51,1.5 -50.1,1.8 -49.2,1.6
		-48.3,1.8 -47.4,1.8 -46.5,1.5 -45.5,1.5 -44.6,1.5 -43.7,1.5 -42.8,1.5 -41.9,1.8 -41,1.5 -40.1,1.5 -39.1,1.6 -38.2,1.6
		-37.3,1.6 -36.4,1.6 -35.5,1.8 -34.6,1.8 -33.7,1.8 -32.8,1.5 -31.8,1.6 -30.9,1.6 -30,1.5 -29.1,1.5 -28.2,1.6 -27.3,1.5
		-26.4,1.5 -25.4,1.5 -24.5,1.5 -23.6,1.6 -22.7,1.8 -21.8,1.5 -20.9,1.6 -20,1.5 -19,1.5 -18.1,1.8 -17.2,1.8 -16.3,1.5 -15.4,1.5
		-14.5,1.5 -13.6,1.5 -12.7,1.5 -11.7,1.8 -10.8,1.8 -9.9,1.9 -9,1.9 -8.1,1.9 -7.2,1.5 -6.3,1.5 -5.3,1.9 -4.4,1.8 -3.5,1.6
		-2.6,1.8 -1.7,1.6 -0.8,1.5 0.1,1.8 1.1,2 2,1.9 2.9,1.6 3.8,1.6 4.7,1.6 5.6,1.9 6.5,1.8 7.4,1.9 8.4,1.9 9.3,1.6 10.2,1.8
		11.1,1.9 12,1.9 12.9,1.6 13.8,1.9 14.7,1.8 15.7,2 16.6,1.6 17.5,1.8 18.4,1.8 19.3,1.8 20.2,1.9 21.1,1.9 22,1.6 23,1.8
		23.9,1.5 24.8,1.5 25.7,1.5 26.6,1.6 27.5,1.9 28.4,1.8 29.4,1.8 30.3,1.9 31.2,1.9 32.1,1.6 33,1.6 33.9,1.6 34.8,1.5 35.8,1.5
		36.7,1.8 37.6,1.6 38.5,1.8 39.4,1.5 40.3,1.8 41.2,1.6 42.2,1.9 43.1,1.8 44,1.6 44.9,1.8 45.8,1.6 46.7,1.5 47.6,1.5 48.6,1.5
		49.5,1.5 50.4,1.9 51.3,1.8 52.2,1.6 53.1,1.5 54,1.5 54.9,1.6 55.9,1.9 56.8,1.6 57.7,1.8 58.6,1.6 59.5,1.6 60.4,1.8 61.3,1.8
		62.2,1.5 63.2,1.5 64.1,1.5 65,1.6 65.9,1.6 66.8,1.6 67.7,1.5 68.6,1.8 69.5,1.5 70.5,1.5 71.4,1.5 72.3,1.5 73.2,1.6 74.1,1.6
		75,1.5 75.9,1.6 76.8,1.6 77.7,1.5 78.7,1.5 79.6,1.5 80.5,1.5 81.4,1.5 82.3,1.5 83.2,1.5 84.1,1.5 85,1.8 85.9,1.8 86.9,1.8
		87.8,1.8 88.7,1.6 89.6,1.5 90.5,1.5 91.4,1.5 92.3,1.5 93.2,1.5 94.1,1.5 95,1.6 96,1.5 96.9,1.6 97.8,1.5 98.7,1.5 99.6,1.4
		100.5,1.5 101.4,1.4 102.3,1.5 103.3,1.5 104.2,1.4 105.1,1.2 106,1.5 106.9,1.5 107.8,1.6 108.7,1.4 109.6,1.5 110.5,1.4
		111.5,1.2 112.4,1.5 113.3,1.2 114.2,1.2 115.1,1.5 116,1.4 116.9,1.2 117.8,1.2 118.8,1.2 119.7,1.4 120.6,1.4 121.5,1.4
		122.4,1.4 123.3,1.4 124.2,1.4 125.2,1.4 126.1,1.4 127,1.5 127.9,1.4 128.8,1.5 129.7,1.5 130.6,1.5 131.5,1.4 132.5,1.2
		133.4,1.5 134.3,1.4 135.2,1.6 136.1,1.5 137,1.4 137.9,1.2 138.8,1.4 139.8,1.5 140.7,1.4 141.6,1.2 142.5,1.5 143.4,1.5
		144.3,1.5 145.2,1.5 146.1,1.5 147.1,1.5 148,1.5 148.9,1.5 149.8,1.5 150.7,1.6 151.6,1.5 152.5,1.5 153.5,1.5 154.4,1.4
		155.3,1.5 156.2,1.5 157.1,1.6 158,1.6 158.9,1.6 159.9,1.6 160.8,1.5 161.7,1.5 162.6,1.4 163.5,1.5 164.4,1.2 165.3,1.4
		166.3,1.4 167.2,1.4 168.1,1.4 169,1.5 169.9,1.5 170.8,1.5 171.7,1.5 172.7,1.5 173.6,1.6 174.5,1.5 175.4,1.6 176.3,1.5
		177.2,1.5 178.1,1.6 179.1,1.6 180,1.8 180.9,1.8 181.8,1.5 182.7,1.5 183.6,1.8 184.5,1.8 185.5,1.8 186.4,1.5 187.3,1.5
		188.2,1.5 189.1,1.5 190,1.5 190.9,1.5 191.8,1.4 192.8,1.4 193.7,1.5 194.6,1.5 195.5,1.6 196.4,1.8 197.3,1.6 198.2,1.8
		199.2,1.5 200.1,1.6 201,1.5 201.9,1.6 202.8,1.5 203.7,1.5 204.6,1.9 205.5,1.5 206.5,1.6 207.4,1.8 208.3,1.5 209.2,1.5
		210.1,1.5 211,1.5 211.9,1.6 212.9,1.5 213.8,1.5 214.7,1.8 215.6,1.6 216.5,1.6 217.4,1.5 218.3,1.6 219.2,1.6 220.2,1.8
		221.1,1.5 222,1.6 222.9,1.8 223.8,1.6 224.7,1.8 225.7,1.8 226.6,1.6 227.5,1.5 228.4,1.8 229.3,1.5 230.2,1.5 231.1,1.6 232,1.8
		233,1.8 233.9,1.6 234.8,1.8 235.7,1.8 236.6,1.6 237.5,1.5 238.4,1.6 239.3,1.5 240.3,1.5 241.2,1.5 242.1,1.6 243,1.8 243.9,1.8
		244.8,1.9 245.7,1.9 246.6,1.8 247.6,1.6 248.5,1.6 249.4,1.6 250.3,1.8 251.2,1.6 252.1,1.8 253,1.5 253.9,1.5 254.9,1.6
		255.8,1.6 256.7,1.5 257.6,1.5 258.5,1.5 259.4,1.5 260.3,1.5 261.2,1.5 262.1,1.5 263.1,1.5 264,1.4 264.9,1.5 265.8,1.4
		266.7,1.5 	"/>
</g>
</svg>
