<svg version="1.1" id="Layer_1" xmlns="http://www.w3.org/2000/svg" xmlns:xlink="http://www.w3.org/1999/xlink" x="0px" y="0px"
   viewBox="0 0 3 100" enable-background="new 0 0 3 100" xml:space="preserve">
<g>
  <polyline fill="none" stroke="#248fed" stroke-width="1.75" stroke-linecap="round" stroke-linejoin="round" points="1.4,266.2
    1.5,265.3 1.4,264.3 1.2,263.4 1.5,262.5 1.4,261.6 1.6,260.7 1.5,259.8 1.3,258.9 1.4,257.9 1.2,257 1.4,256.1 1.2,255.2
    1.3,254.3 1.3,253.4 1.2,252.4 1.3,251.5 1.4,250.6 1.2,249.7 1.3,248.8 1.3,247.8 1,246.9 1.1,246 1.2,245.1 1,244.2 1.2,243.3
    1.1,242.3 1.3,241.4 1.2,240.5 1.3,239.6 1.3,238.7 1.4,237.8 1.2,236.8 1.4,235.9 1.3,235 1,234.1 1,233.2 1.1,232.3 1.1,231.4
    1.1,230.4 1.2,229.5 1.2,228.6 1.3,227.7 1.1,226.8 1.1,225.9 1.1,224.9 1.1,224 1.2,223.1 1.2,222.2 1.1,221.3 1.1,220.4
    1.1,219.4 1.1,218.5 1.2,217.6 1.3,216.7 1.3,215.8 1.3,214.8 1.3,213.9 1.2,213 1.4,212.1 1.3,211.2 1.3,210.3 1.3,209.3
    1.2,208.4 1.3,207.5 1.1,206.6 1.1,205.7 1.2,204.8 1.2,203.8 1.3,202.9 1.2,202 1.4,201.1 1.2,200.2 1.2,199.2 1.2,198.3
    1.3,197.4 1.4,196.5 1.4,195.6 1.3,194.7 1.4,193.7 1.2,192.8 1.3,191.9 1.2,191 1.2,190.1 1.3,189.2 1.3,188.2 1.2,187.3
    1.2,186.4 1.4,185.5 1.4,184.6 1.2,183.7 1.2,182.7 1.2,181.8 1.3,180.9 1.2,180 1.3,179.1 1.2,178.1 1.3,177.2 1.2,176.3
    1.3,175.4 1.5,174.5 1.5,173.6 1.5,172.6 1.4,171.7 1.5,170.8 1.4,169.9 1.5,169 1.6,168.1 1.4,167.1 1.4,166.2 1.3,165.3
    1.3,164.4 1.3,163.4 1.5,162.5 1.6,161.6 1.3,160.7 1.5,159.8 1.3,158.8 1.5,157.9 1.5,157 1.7,156.1 1.6,155.2 1.5,154.3
    1.5,153.4 1.7,152.5 1.7,151.5 1.5,150.6 1.7,149.7 1.6,148.8 1.7,147.9 1.7,147 1.5,146.1 1.4,145.1 1.5,144.2 1.5,143.3
    1.4,142.4 1.7,141.5 1.5,140.6 1.5,139.7 1.6,138.7 1.6,137.8 1.6,136.9 1.6,136 1.7,135.1 1.7,134.2 1.7,133.3 1.5,132.4
    1.6,131.4 1.6,130.5 1.4,129.6 1.5,128.7 1.6,127.8 1.5,126.9 1.4,126 1.4,125 1.5,124.1 1.6,123.2 1.7,122.3 1.5,121.4 1.6,120.5
    1.5,119.6 1.5,118.6 1.7,117.7 1.7,116.8 1.5,115.9 1.4,115 1.5,114.1 1.4,113.2 1.5,112.3 1.7,111.3 1.7,110.4 1.8,109.5
    1.8,108.6 1.8,107.7 1.5,106.8 1.5,105.9 1.8,104.9 1.7,104 1.6,103.1 1.7,102.2 1.6,101.3 1.5,100.4 1.7,99.5 1.9,98.5 1.8,97.6
    1.6,96.7 1.6,95.8 1.6,94.9 1.8,94 1.7,93.1 1.8,92.2 1.8,91.2 1.6,90.3 1.7,89.4 1.8,88.5 1.8,87.6 1.6,86.7 1.8,85.8 1.7,84.9
    1.9,83.9 1.6,83 1.7,82.1 1.7,81.2 1.7,80.3 1.8,79.4 1.8,78.5 1.6,77.6 1.7,76.6 1.5,75.7 1.5,74.8 1.5,73.9 1.6,73 1.8,72.1
    1.7,71.2 1.7,70.2 1.8,69.3 1.8,68.4 1.6,67.5 1.6,66.6 1.6,65.7 1.5,64.8 1.5,63.8 1.7,62.9 1.6,62 1.7,61.1 1.5,60.2 1.7,59.3
    1.6,58.4 1.8,57.4 1.7,56.5 1.6,55.6 1.7,54.7 1.6,53.8 1.5,52.9 1.4,52 1.5,51 1.5,50.1 1.8,49.2 1.7,48.3 1.6,47.4 1.5,46.5
    1.5,45.6 1.6,44.7 1.8,43.7 1.6,42.8 1.7,41.9 1.6,41 1.6,40.1 1.7,39.2 1.7,38.3 1.5,37.4 1.4,36.4 1.5,35.5 1.6,34.6 1.6,33.7
    1.6,32.8 1.5,31.9 1.7,31 1.5,30.1 1.5,29.1 1.5,28.2 1.5,27.3 1.6,26.4 1.6,25.5 1.4,24.6 1.6,23.7 1.6,22.8 1.5,21.9 1.4,20.9
    1.5,20 1.5,19.1 1.5,18.2 1.4,17.3 1.4,16.4 1.4,15.5 1.7,14.6 1.7,13.7 1.7,12.7 1.7,11.8 1.6,10.9 1.4,10 1.4,9.1 1.5,8.2
    1.5,7.3 1.4,6.4 1.5,5.5 1.6,4.6 1.4,3.6 1.6,2.7 1.4,1.8 1.4,0.9 1.3,0 1.4,-0.9 1.3,-1.8 1.5,-2.7 1.4,-3.7 1.3,-4.6 1.2,-5.5
    1.5,-6.4 1.4,-7.3 1.6,-8.2 1.3,-9.1 1.4,-10 1.3,-10.9 1.2,-11.9 1.4,-12.8 1.2,-13.7 1.2,-14.6 1.4,-15.5 1.3,-16.4 1.2,-17.3
    1.2,-18.2 1.2,-19.2 1.3,-20.1 1.3,-21 1.3,-21.9 1.3,-22.8 1.3,-23.7 1.3,-24.6 1.3,-25.6 1.3,-26.5 1.5,-27.4 1.3,-28.3
    1.4,-29.2 1.4,-30.1 1.4,-31 1.3,-31.9 1.2,-32.9 1.4,-33.8 1.3,-34.7 1.6,-35.6 1.5,-36.5 1.3,-37.4 1.2,-38.3 1.3,-39.2
    1.4,-40.2 1.3,-41.1 1.2,-42 1.4,-42.9 1.5,-43.8 1.4,-44.7 1.5,-45.6 1.4,-46.5 1.4,-47.5 1.5,-48.4 1.5,-49.3 1.4,-50.2
    1.6,-51.1 1.5,-52 1.4,-52.9 1.4,-53.9 1.3,-54.8 1.4,-55.7 1.4,-56.6 1.6,-57.5 1.6,-58.4 1.6,-59.3 1.6,-60.3 1.5,-61.2
    1.5,-62.1 1.3,-63 1.4,-63.9 1.2,-64.8 1.3,-65.7 1.3,-66.7 1.3,-67.6 1.3,-68.5 1.5,-69.4 1.5,-70.3 1.5,-71.2 1.4,-72.1
    1.5,-73.1 1.6,-74 1.5,-74.9 1.6,-75.8 1.4,-76.7 1.5,-77.6 1.6,-78.5 1.6,-79.5 1.7,-80.4 1.7,-81.3 1.5,-82.2 1.5,-83.1 1.7,-84
    1.7,-84.9 1.7,-85.9 1.4,-86.8 1.4,-87.7 1.5,-88.6 1.5,-89.5 1.5,-90.4 1.5,-91.3 1.3,-92.2 1.3,-93.2 1.5,-94.1 1.5,-95
    1.6,-95.9 1.7,-96.8 1.6,-97.7 1.7,-98.6 1.5,-99.6 1.6,-100.5 1.4,-101.4 1.6,-102.3 1.5,-103.2 1.5,-104.1 1.8,-105 1.5,-105.9
    1.6,-106.9 1.7,-107.8 1.5,-108.7 1.5,-109.6 1.5,-110.5 1.4,-111.4 1.6,-112.3 1.5,-113.3 1.5,-114.2 1.7,-115.1 1.6,-116
    1.6,-116.9 1.4,-117.8 1.6,-118.7 1.6,-119.6 1.7,-120.6 1.5,-121.5 1.6,-122.4 1.7,-123.3 1.6,-124.2 1.7,-125.1 1.7,-126.1
    1.6,-127 1.5,-127.9 1.7,-128.8 1.5,-129.7 1.5,-130.6 1.6,-131.5 1.7,-132.4 1.7,-133.4 1.6,-134.3 1.7,-135.2 1.7,-136.1
    1.6,-137 1.5,-137.9 1.6,-138.8 1.5,-139.7 1.5,-140.7 1.5,-141.6 1.6,-142.5 1.7,-143.4 1.7,-144.3 1.8,-145.2 1.8,-146.1
    1.7,-147 1.6,-148 1.6,-148.9 1.6,-149.8 1.7,-150.7 1.6,-151.6 1.7,-152.5 1.4,-153.4 1.5,-154.3 1.6,-155.3 1.6,-156.2
    1.4,-157.1 1.5,-158 1.5,-158.9 1.5,-159.8 1.5,-160.7 1.5,-161.6 1.5,-162.5 1.4,-163.5 1.3,-164.4 1.4,-165.3 1.3,-166.2
    1.4,-167.1  "/>
</g>
</svg>
