<svg version="1.1" xmlns="http://www.w3.org/2000/svg" xmlns:xlink="http://www.w3.org/1999/xlink" x="0" y="0" viewBox="0 0 350.2000122 90" xml:space="preserve">
    <path fill="#1f8ded" d="M119.1981049,57.9924278l-0.0001068-25.9856033
    c-0.0000076-1.6262169,1.318306-2.9445248,2.9445343-2.9445229h0.0000076
    c1.6262207,0.0000019,2.9445496,1.3183136,2.9445496,2.9445305l0.0001068,25.9856033
    c0.0000076,1.6262207-1.318306,2.9445267-2.9445343,2.9445267l0,0
    C120.5164337,60.9369583,119.1981125,59.6186447,119.1981049,57.9924278z"></path>
    <path fill="#1f8ded" d="M152.4012756,59.1386299l-12.6683502-20.0958595l0.0000763,19.0394478
    c0,1.5766411-1.2781219,2.854763-2.8547821,2.8547592l0,0c-1.5766602,0-2.8547821-1.2781258-2.8547974-2.8547707
    l-0.0000916-25.1667328c-0.0000153-2.1280403,1.7251129-3.853157,3.8531647-3.8531532h0.1815033
    c1.322403,0.0000019,2.5524292,0.6781425,3.2583313,1.7963867l12.4880981,19.7831306l-0.0000763-18.7247276
    c-0.0000153-1.576643,1.2781219-2.8547649,2.8547668-2.854763h0.0000153
    c1.5766449,0.0000038,2.8547821,1.2781277,2.8547821,2.8547726l0.0001068,25.1667309
    c0,2.1280441-1.7251129,3.853157-3.8531647,3.853157h-0.0000153
    C154.3376007,60.9370041,153.1069183,60.2580109,152.4012756,59.1386299z"></path>
    <path fill="#1f8ded" d="M179.8810577,34.4571991l0.0000916,23.7824364c0.0000153,1.4897346-1.2076569,2.697403-2.697403,2.697403
    h-0.4047241c-1.4897308-0.0000038-2.6974182-1.2076759-2.6974182-2.6974106l-0.0001068-23.7824364l-6.7433929-0.0000114
    c-1.4897461,0-2.6974182-1.2076721-2.6974335-2.6974087v-0.0000057c0-1.4897366,1.2076721-2.6974049,2.6974182-2.697403
    l19.2867889,0.0000286c1.4897461,0.0000019,2.6974182,1.207674,2.6974335,2.6974106v0.0000057
    c0,1.4897346-1.2076721,2.697403-2.6974182,2.697403L179.8810577,34.4571991z"></path>
    <path fill="#1f8ded" d="M193.9875183,58.3295288l-0.0001068-26.6595936c0-1.4401016,1.1674194-2.6075325,2.6075287-2.6075306
    l17.4882202,0.0000267c1.4401093,0.0000019,2.6075439,1.1674347,2.6075592,2.6075363v0.044775
    c0,1.4400997-1.1674347,2.6075306-2.6075439,2.6075306l-14.2966461-0.0000229l0.0000305,7.4181252l12.2737732,0.0000191
    c1.4401093,0,2.6075592,1.1674347,2.6075592,2.6075363v0.0000038c0,1.4401016-1.1674347,2.6075325-2.6075439,2.6075287
    l-12.2737732-0.0000153l0.0000458,8.7215576l14.2966461,0.0000191c1.4401093,0.0000038,2.6075439,1.1674385,2.6075592,2.6075401
    v0.0449944c0,1.4401016-1.1674347,2.6075325-2.6075439,2.6075325l-17.488205-0.0000267
    C195.1549683,60.9370613,193.9875183,59.7696266,193.9875183,58.3295288z"></path>
    <path fill="#1f8ded" d="M241.146759,59.2263718l-4.5518646-10.3377724l-7.0584564-0.0000076l0.0000458,9.1830559
    c0,1.58255-1.2829132,2.8654633-2.8654785,2.8654594h-0.1131287c-1.5825653,0-2.8654938-1.282917-2.8654938-2.8654709
    l-0.0001068-26.1437263c-0.0000153-1.582552,1.2828979-2.8654633,2.8654633-2.8654613l10.5765381,0.0000153
    c7.5979004,0.0000114,11.0596619,4.7653904,11.0596771,9.8904781c0.0000305,4.2711296-2.3377838,7.6428566-5.8444977,8.9465103
    l4.0345917,9.0000763c0.8498535,1.8958054-0.5371704,4.0376091-2.6147614,4.0376053l0,0
    C242.6332855,60.93713,241.604538,60.2660484,241.146759,59.2263718z M237.1342926,34.1425591l-7.6428986-0.0000114
    l0.0000305,9.5309715l7.7328949,0.0000114c3.2817688,0.0000038,5.170105-1.7083549,5.1700897-4.7205963
    C242.3943939,36.3903885,240.4160614,34.1425629,237.1342926,34.1425591z"></path>
    <path fill="#1f8ded" d="M275.7298584,57.7451935c-2.3823547,2.4277878-5.7095642,3.7764282-9.1263123,3.7764244
    c-3.4167175-0.0000038-6.6085205-1.1239204-9.0363464-3.5517159c-3.461731-3.4617195-3.9562225-7.7326279-3.9562378-12.9477005
    c-0.0000305-5.2150726,0.4944305-9.4859772,3.9561462-12.9476891c2.4277954-2.4275627,5.6195679-3.5964622,9.0363159-3.5964565
    c3.416748,0.0000038,6.7439575,1.2586746,9.1263428,3.6864681c0.8312073,0.8513947,1.4796143,1.8308182,1.9658203,2.8805237
    c0.8741455,1.8873215-0.5383911,4.0429115-2.6183167,4.0429077h-0.013855c-1.1690674,0-2.1936035-0.7213287-2.65802-1.7941856
    c-0.2434082-0.5623474-0.5758972-1.0699768-0.991333-1.5775528c-1.0339355-1.3038788-2.8323059-1.978096-4.8106079-1.978096
    c-1.8433533-0.0000038-3.6412659,0.7641907-4.9001465,2.1128387c-2.2028503,2.2928085-2.2028198,6.2489929-2.2028198,9.1712532
    c0.0000305,2.9222565,0.0000305,6.8784409,2.2028809,9.171257c1.2589111,1.3488731,3.0568237,2.1130753,4.900177,2.1130753
    c1.978302,0.0000038,3.7766724-0.7192001,4.8106079-2.0230751c0.4181824-0.5109367,0.7522888-1.0579605,0.9961243-1.6595955
    c0.4468994-1.1026421,1.4887085-1.8471107,2.6784973-1.8471107l0,0c2.0755615,0.0000038,3.4820251,2.1444626,2.6228638,4.0338211
    C277.2237244,55.8835258,276.5701904,56.8844414,275.7298584,57.7451935z"></path>
    <path fill="#1f8ded" d="M306.8782654,57.9249802c-2.4277954,2.4277878-5.7545471,3.5966873-9.1712952,3.5966797
    c-3.4167175-0.0000038-6.743927-1.168911-9.1712952-3.5967064c-3.4617615-3.4617233-4.0462341-7.6876373-4.0462646-12.90271
    c0-5.2150688,0.5844116-9.4859772,4.0461426-12.9476891c2.4273682-2.4275627,5.7545471-3.5964622,9.1712952-3.5964565
    s6.7434998,1.1689129,9.1713257,3.5964832c3.4617615,3.4617233,4.0462341,7.7326317,4.0462341,12.9477005
    C310.9244385,50.2373543,310.3399963,54.4632683,306.8782654,57.9249802z M302.7420044,35.8510132
    c-1.2588806-1.3486481-3.1917725-2.1128502-5.0351257-2.1128502c-1.8433533-0.0000038-3.7766724,0.7641907-5.0355835,2.1128387
    c-2.2028198,2.2928085-2.2927856,6.2489929-2.2927856,9.1712532c0.0000305,2.9222565,0.0900269,6.8336716,2.2928772,9.1264877
    c1.2588806,1.3486519,3.1922302,2.1128502,5.0355835,2.112854s3.7762146-0.7641907,5.0351257-2.1128387
    c2.2028198-2.2928085,2.2927856-6.2042236,2.2927856-9.1264839
    C305.0348511,42.1000175,304.9448547,38.1438332,302.7420044,35.8510132z"></path>
    <path fill="#1f8ded" d="M344.5169067,58.1274986l-0.000061-19.9386177l-7.5317383,20.3027382
    c-0.4451294,1.1999016-1.5898132,1.9961662-2.8696289,1.9961662h-0.0000305
    c-1.2861633-0.0000038-2.4351501-0.8040962-2.8756409-2.0124893l-7.4933777-20.5561752l0.000061,20.2083473
    c0.0000305,1.551796-1.2579651,2.8097725-2.8097534,2.8097725h-0.0000305
    c-1.5517883-0.0000038-2.8097839-1.2579842-2.8097839-2.8097801l-0.0000916-24.6912613
    c-0.0000305-2.4154854,1.9581299-4.3736191,4.3736267-4.3736172l0.3987732,0.0000019
    c1.8325195,0.0000019,3.4707642,1.1424408,4.104126,2.862051l7.3078613,19.8413677l7.3500671-19.8485718
    c0.6354065-1.7158451,2.2717285-2.8548164,4.1014404-2.8548145h0.0000305
    c2.4154968,0.0000038,4.3736267,1.9581432,4.3736572,4.3736286l0.0000916,24.6912651
    c0,1.5517921-1.2579651,2.8097725-2.8097839,2.8097687l0,0C345.7749329,60.9372749,344.5169373,59.6792946,344.5169067,58.1274986
    z"></path>
    <path fill="#1f8ded" d="M78.6137009,0.0000503L11.1135216,0C4.900279-0.0000046-0.136507,5.0366707-0.1365055,11.2499857
    l0.0000157,67.4999619c0.0000015,6.2133179,5.0367894,11.25,11.2500324,11.25L78.6137238,90
    c6.2132416,0.0000076,11.2500229-5.0366745,11.2500229-11.2499847l-0.0000153-67.4999619
    C89.8637314,5.0367379,84.8269424,0.000055,78.6137009,0.0000503z M56.8636475,16.4999447
    c0-1.6567383,1.3432617-2.9999981,3.0000076-2.9999971c1.6567421,0.0000019,3.0000076,1.3432636,3.0000076,3.000001
    l0.0000076,40.0784149c0,1.6567383-1.3432655,3-3.0000076,2.9999962c-1.6567421,0-3.0000076-1.3432617-3.0000076-3
    L56.8636475,16.4999447z M41.8636055,14.9817038c0-1.6567373,1.3432655-2.9999971,3.0000076-2.9999962
    c1.6567421,0.0000019,3.0000076,1.3432636,3.0000076,3.000001l0.0000114,43.4999771
    c0,1.6567345-1.3432655,2.9999962-3.0000076,2.9999962c-1.6567421-0.0000038-3.0000076-1.3432655-3.0000076-3.0000038
    L41.8636055,14.9817038z M26.8635674,16.4999828c0-1.6567373,1.3432655-2.9999971,3.0000076-2.9999962
    c1.6567421,0.0000019,3.0000076,1.3432636,3.0000076,3l0.0000076,40.0783539c0,1.6567383-1.3432636,3-3.0000057,2.9999962
    c-1.6567421,0-3.0000076-1.3432617-3.0000095-3L26.8635674,16.4999828z M11.8635292,22.5000095
    c0-1.6567383,1.3432646-2.9999981,3.0000076-2.9999962c1.6567421,0,3.0000076,1.3432617,3.0000076,3l0.0000057,26.9816532
    c0.0000019,1.6567383-1.3432636,2.9999962-3.0000067,2.9999962s-3.0000086-1.3432617-3.0000086-3L11.8635292,22.5000095z
    M76.8163452,68.2595291c-0.4628906,0.3969727-11.576683,9.7221603-31.9527168,9.7221451
    s-31.4890976-9.3252182-31.9527225-9.7221909c-1.2575722-1.078125-1.4033251-2.972168-0.3251972-4.2304688
    c1.0759296-1.2553673,2.9648504-1.4040451,4.223156-0.3310471c0.1765137,0.1472168,10.1001263,8.2836914,28.0547638,8.2837067
    c18.1802216,0.0000153,27.9507561-8.1950417,28.0474358-8.2778053c1.2553711-1.078125,3.1523514-0.9331055,4.2304764,0.3251991
    C78.2196732,65.2873688,78.0746536,67.1814117,76.8163452,68.2595291z M77.8637085,49.4817123
    c0,1.6567383-1.3432617,2.9999962-3.0000076,2.9999962c-1.6567383-0.0000038-3.0000076-1.3432655-3.0000076-3
    l-0.0000076-26.9817791c0-1.6567364,1.3432693-2.9999962,3.0000076-2.9999943c1.6567459,0,3.0000076,1.3432617,3.0000076,3
    L77.8637085,49.4817123z"></path>
</svg>