<svg version="1.1" id="Layer_1" xmlns="http://www.w3.org/2000/svg" xmlns:xlink="http://www.w3.org/1999/xlink" x="0px" y="0px"
	 viewBox="0 0 20 13" xml:space="preserve">
<g>
	<polygon fill="#248fed" points="7.713,4.0066 7.3356,4.7154 7.0152,5.4219 6.8668,6.2339 6.1001,6.4462 5.3977,6.743 4.639,7.0059
		4.0195,6.492 3.3147,6.284 2.6276,6.024 2.4162,5.3214 2.0668,4.6796 1.7047,4.0094 1.9554,3.2837 2.2739,2.6144 2.4914,1.854
		3.295,1.7932 3.9383,1.4171 4.6436,1.2047 5.317,1.5018 6.0149,1.7203 6.7692,1.878 7.0156,2.6311 7.3218,3.3247 	"/>
	<polygon fill="none" stroke="#248fed" stroke-width="2" stroke-linecap="round" stroke-linejoin="round" points="7.713,4.0066
		7.3356,4.7154 7.0152,5.4219 6.8668,6.2339 6.1001,6.4462 5.3977,6.743 4.639,7.0059 4.0195,6.492 3.3147,6.284 2.6276,6.024
		2.4162,5.3214 2.0668,4.6796 1.7047,4.0094 1.9554,3.2837 2.2739,2.6144 2.4914,1.854 3.295,1.7932 3.9383,1.4171 4.6436,1.2047
		5.317,1.5018 6.0149,1.7203 6.7692,1.878 7.0156,2.6311 7.3218,3.3247 	"/>
</g>
<g>
	<polyline fill="none" stroke="#248fed" stroke-width="2" stroke-linecap="round" stroke-linejoin="round" points="6.71,11.0589
		5.7858,10.7015 5.0955,9.978 4.2573,9.4988 3.6869,8.7174 3.068,7.9599 2.4945,7.1968 2.2189,6.2788 1.9887,5.3234 1.7255,4.3755
		"/>
</g>
<g>
	<polygon fill="#248fed" points="18.1189,3.9355 17.9027,4.6601 17.359,5.2354 17.0434,5.8859 16.4652,6.3464 15.7349,6.5937
		15.0936,6.9427 14.3735,6.7467 13.7766,6.2226 12.9702,6.0582 12.6007,5.3675 12.4852,4.5932 12.1936,3.9333 12.4178,3.2233
		12.5278,2.4359 12.9744,1.8208 13.6202,1.5003 14.341,1.2612 15.0946,1.1225 15.8253,1.2744 16.4727,1.6689 17.129,1.9074
		17.5937,2.4966 17.8756,3.2145 	"/>
	<polygon fill="none" stroke="#248fed" stroke-width="2.02" stroke-linecap="round" stroke-linejoin="round" points="
		18.1189,3.9355 17.9027,4.6601 17.359,5.2354 17.0434,5.8859 16.4652,6.3464 15.7349,6.5937 15.0936,6.9427 14.3735,6.7467
		13.7766,6.2226 12.9702,6.0582 12.6007,5.3675 12.4852,4.5932 12.1936,3.9333 12.4178,3.2233 12.5278,2.4359 12.9744,1.8208
		13.6202,1.5003 14.341,1.2612 15.0946,1.1225 15.8253,1.2744 16.4727,1.6689 17.129,1.9074 17.5937,2.4966 17.8756,3.2145 	"/>
</g>
<g>
	<polyline fill="none" stroke="#248fed" stroke-width="2.02" stroke-linecap="round" stroke-linejoin="round" points="
		17.041,11.3386 16.2443,10.7242 15.3268,10.295 14.492,9.7111 14.0111,8.822 13.3847,8.0411 12.7702,7.2262 12.6392,6.2175
		12.5042,5.2299 12.0371,4.3289 	"/>
</g>
</svg>
