<svg id="font" xmlns="http://www.w3.org/2000/svg" viewBox="0 0 30.216 31.852">
  <title>star-1</title>
  <polygon points="12.953 26.953 12.249 27.617 11.944 28.489 11.872 28.55 11.449 29.619 11.871 30.7 12.674 31.522 13.571 31.852 14.456 31.523 15.164 30.992 15.634 30.255 16.029 29.211 15.641 28.158 15.027 27.211 14.007 26.981 12.953 26.953" style="fill: white"/>
  <polygon points="14.129 1.892 13.614 1.103 12.846 0.562 12.685 0.664 11.765 0 10.645 0.303 9.836 1.058 9.363 1.823 9.318 2.76 9.73 3.619 10.481 4.186 11.539 4.511 12.609 4.318 13.497 3.741 14.034 2.917 14.129 1.892" style="fill: white"/>
  <polygon points="4.705 10.834 4.738 11.861 4.847 12.885 4.878 13.913 5.068 14.933 4.862 15.972 5.006 16.973 3.858 16.999 2.692 17.016 1.523 17.117 0.629 17.244 0 17.991 0.156 18.948 0.618 19.759 1.524 20.046 2.438 19.866 3.351 20.051 4.263 19.932 5.198 19.974 5.214 21.083 5.387 22.166 5.694 22.961 6.391 23.456 7.301 23.612 8.046 23.054 8.244 22.173 8.349 21.04 8.273 20.024 9.434 19.945 10.697 19.957 11.542 19.505 11.992 18.735 12.059 17.839 11.524 17.145 10.687 16.762 9.804 16.949 8.913 16.932 7.961 16.984 8.074 15.905 7.857 14.898 7.887 13.878 7.931 12.858 7.74 11.85 7.729 10.832 7.443 9.936 6.606 9.562 5.705 9.413 4.972 9.962 4.705 10.834" style="fill: white"/>
  <polygon points="20.086 1.605 19.477 2.507 19.197 3.546 19.015 4.604 18.745 5.635 18.52 6.677 18.295 7.724 18.282 8.87 17.046 9.062 15.844 9.005 14.963 9.577 14.279 10.275 14.149 11.291 15.014 11.865 15.933 12.487 17.015 12.768 17.929 13.362 17.916 14.418 17.872 15.481 17.926 16.543 17.836 17.602 17.776 18.665 17.91 19.727 17.842 20.784 18.179 21.728 19.098 22.271 20.179 22.207 21.083 21.589 21.574 20.67 22.219 19.842 22.758 18.945 23.331 18.065 23.758 17.079 24.638 17.9 25.378 18.802 26.316 19.223 27.269 19.026 27.983 18.39 28.247 17.493 27.826 16.674 27.615 16.098 27.079 15.112 26.718 14.035 26.28 13.035 26.834 12.137 27.417 11.209 28.079 10.338 28.81 9.52 29.637 8.904 30.216 8.283 30.216 7.402 29.901 6.657 29.293 5.968 28.333 6.06 27.422 6.583 26.447 6.95 25.433 7.196 24.429 7.401 24.033 6.372 24.07 5.228 23.795 4.152 23.571 3.064 23.287 1.98 22.86 1.008 21.858 0.621 20.745 0.704 20.086 1.605" style="fill: white"/>
</svg>
