<svg id="font" xmlns="http://www.w3.org/2000/svg" viewBox="0 0 30.917 27.742">
  <title>star-2</title>
  <polygon points="30.254 10.615 29.125 10.657 28.146 10.5 27.261 10.039 26.253 9.988 25.384 9.461 24.392 9.349 23.473 8.989 22.521 8.756 21.599 8.405 20.634 8.191 19.718 7.803 18.566 7.611 17.512 6.902 17.512 5.815 18.208 4.761 19.482 4.838 20.478 5.085 21.438 5.371 22.39 5.646 23.355 5.869 24.316 6.093 25.206 6.555 26.17 6.752 27.111 7.041 28.054 7.328 28.994 7.636 29.982 7.782 30.917 8.537 30.888 9.687 30.254 10.615" style="fill: white"/>
  <polygon points="22.687 13.432 21.625 13.576 20.781 12.894 20.531 11.771 21.009 10.843 21.297 9.859 21.606 8.882 21.901 7.898 21.979 6.85 22.341 5.886 22.711 4.929 22.883 3.906 23.358 2.973 23.425 1.915 23.968 0.999 24.536 0.041 25.676 0 26.575 0.673 26.622 1.788 26.395 2.792 25.996 3.742 25.793 4.75 25.501 5.736 25.092 6.685 25.071 7.75 24.571 8.669 24.311 9.665 24.01 10.65 23.719 11.642 23.481 12.648 22.687 13.432" style="fill: white"/>
  <polygon points="16.209 15.624 15.104 15.494 14.019 15.643 12.883 15.808 12.763 14.829 12.692 13.906 12.67 12.978 12.446 12.068 12.394 11.141 12.236 10.169 11.317 9.821 10.421 9.795 9.611 10.33 9.198 11.321 8.513 12.152 8.174 13.182 7.547 14.048 7.045 14.984 6.528 15.892 5.537 15.955 4.529 15.876 3.521 15.826 2.509 15.975 1.5 15.93 0.523 16.208 0 17.129 0.254 18.18 1.07 18.908 2.204 19.253 3.258 19.8 4.291 20.207 3.836 21.008 3.546 21.995 2.599 22.733 1.839 23.682 1.689 24.89 1.934 25.637 1.88 25.839 1.815 26.7 2.411 27.295 3.26 27.742 4.161 27.366 4.835 26.662 5.205 25.728 5.631 24.818 6.014 23.919 6.844 23.43 7.69 22.892 8.575 22.416 9.36 22.93 10.201 23.358 10.978 23.882 11.559 24.664 12.299 25.23 13.282 25.401 14.179 25.192 14.856 24.611 14.905 23.671 14.38 22.735 14.307 21.644 13.945 20.65 13.642 19.651 14.545 19.087 15.564 18.746 16.576 18.384 17.477 17.874 17.656 16.812 17.215 15.84 16.209 15.624" style="fill: white"/>
  <polygon points="27.491 21.448 26.57 20.847 25.61 20.392 24.552 20.289 23.506 20.536 22.576 21.521 21.937 22.395 21.771 23.47 22.256 24.459 22.991 25.315 23.878 25.717 24.782 26.072 25.729 26.335 26.708 26.227 27.595 25.875 28.362 25.228 28.494 24.228 28.264 23.273 27.866 22.383 27.491 21.448" style="fill: white"/>
</svg>
