<svg xmlns="http://www.w3.org/2000/svg" viewBox="0 0 50 50">
    <circle cx="25" cy="25" r="25" style="fill: #7e61ea"></circle>
    <path d="M2470.349,526.877a13.007,13.007,0,1,0,0,26.013h0.012V557.9s12.995-5.005,12.995-18.012A13.007,13.007,0,0,0,2470.349,526.877Z" transform="translate(-2445.361 -516.895)" style="fill: #fff"></path>
    <circle cx="24.992" cy="28.806" r="1.195" style="fill: #7e61ea"></circle>
    <path d="M2470.353,533.9a4,4,0,0,0-3.981,3.655l1.979,0.283a2,2,0,0,1,4.006.058c0,1.992-2.8,1.992-2.8,4.78V542.9h1.593v-0.224c0-1.593,3.2-1.992,3.2-4.78A4,4,0,0,0,2470.353,533.9Z" transform="translate(-2445.361 -516.895)" style="fill: #7e61ea"></path>
</svg>