<svg id="Layer_1" data-name="Layer 1" xmlns="http://www.w3.org/2000/svg" viewBox="0 0 83.917 17.264"><defs><style>.cls-1{fill:#1f8ceb;}</style></defs><title>paul-adams</title><path class="cls-1" d="M3569.786,7342.06l-1.141,3.386a4.735,4.735,0,0,1-.178.514,0.763,0.763,0,0,1-.944.507,0.8,0.8,0,0,1-.612-0.893,2.268,2.268,0,0,1,.154-0.7,57.145,57.145,0,0,0,2.321-9.131c0.34-1.563.812-3.1,1.268-4.633a1.292,1.292,0,0,1,1.634-.942,4.758,4.758,0,0,1,4.332,4.23,15.6,15.6,0,0,1,.142,2.443,4.78,4.78,0,0,1-3.779,4.7C3571.943,7341.712,3570.9,7341.878,3569.786,7342.06Zm2.483-10.112a30.469,30.469,0,0,0-1.936,8.25,6.566,6.566,0,0,0,3.066-.574,2.786,2.786,0,0,0,1.628-2.26,11.681,11.681,0,0,0-.039-2.621A2.935,2.935,0,0,0,3572.268,7331.949Z" transform="translate(-3566.909 -7329.682)"/><path class="cls-1" d="M3580.144,7345.369c-0.339.226-.61,0.409-0.883,0.589a2.726,2.726,0,0,1-1.813.46,1.83,1.83,0,0,1-1.768-1.84,7.244,7.244,0,0,1,3.941-6.482,3.752,3.752,0,0,1,1.5-.174,7.493,7.493,0,0,1,1.223.2,0.938,0.938,0,0,1,.767,1.07,9.8,9.8,0,0,1-.225,1.156q-0.5,2.537-.987,5.075a1.085,1.085,0,0,1-.07.441,1.8,1.8,0,0,1-.7.609,0.692,0.692,0,0,1-.824-0.544C3580.241,7345.773,3580.209,7345.606,3580.144,7345.369Zm1.036-5.662a1.036,1.036,0,0,0-1.265.133,5.762,5.762,0,0,0-2.53,3.926,2.879,2.879,0,0,0,.156.918c0.309-.073.621-0.134,0.925-0.225a0.8,0.8,0,0,0,.292-0.211A10.129,10.129,0,0,0,3581.181,7339.707Z" transform="translate(-3566.909 -7329.682)"/><path class="cls-1" d="M3588.492,7345.247a15.132,15.132,0,0,1-1.578,1.009,1.714,1.714,0,0,1-2.64-1.439,12.207,12.207,0,0,1,.092-2.615c0.113-1.017.327-2.023,0.487-3.036a0.922,0.922,0,0,1,.823-0.924,0.864,0.864,0,0,1,.838.99c-0.047.84-.226,1.672-0.34,2.509-0.106.776-.212,1.552-0.291,2.331a3.523,3.523,0,0,0,.122.76,6.17,6.17,0,0,0,.944-0.6,7.247,7.247,0,0,0,1.922-2.929c0.238-.685.434-1.385,0.685-2.065a0.912,0.912,0,0,1,1.082-.735,0.979,0.979,0,0,1,.584,1.188c-0.034.268-.124,0.529-0.174,0.8q-0.358,1.911-.706,3.824a5.233,5.233,0,0,0-.057.541,1.057,1.057,0,0,1-.7,1.066A0.97,0.97,0,0,1,3588.492,7345.247Z" transform="translate(-3566.909 -7329.682)"/><path class="cls-1" d="M3592.106,7345.029c0.056-.223.124-0.611,0.249-0.98,0.447-1.316.978-2.608,1.358-3.943,0.678-2.379,1.283-4.779,1.887-7.179a0.965,0.965,0,0,1,1.089-.93,0.9,0.9,0,0,1,.656,1.2c-0.126.59-.31,1.168-0.461,1.754a87.952,87.952,0,0,1-2.659,8.847,10.721,10.721,0,0,0-.463,1.742,0.915,0.915,0,0,1-.864.962,0.9,0.9,0,0,1-.792-1.032C3592.1,7345.378,3592.106,7345.287,3592.106,7345.029Z" transform="translate(-3566.909 -7329.682)"/><path class="cls-1" d="M3612.286,7341.622c-0.414-.031-0.717-0.078-1.019-0.072-0.967.019-1.934,0.081-2.9,0.081a1.153,1.153,0,0,0-1.168.739c-0.586,1.241-1.21,2.464-1.83,3.689a1.609,1.609,0,0,1-.473.679,1.162,1.162,0,0,1-.912.164,1.316,1.316,0,0,1-.44-0.827,1.074,1.074,0,0,1,.186-0.611c2.016-4.051,4-8.117,6.343-12,0.613-1.015,1.265-2.006,1.9-3.008a2.941,2.941,0,0,1,.215-0.306,0.94,0.94,0,0,1,1.051-.429,0.917,0.917,0,0,1,.63.941c0.047,1.091.14,2.181,0.146,3.272,0.017,3.246.008,6.493-.007,9.739a9.48,9.48,0,0,1-.147,1.581,0.815,0.815,0,0,1-.882.784,0.848,0.848,0,0,1-.767-0.913c0-.717.054-1.434,0.074-2.152C3612.3,7342.55,3612.286,7342.121,3612.286,7341.622Zm-0.051-8.085a27.732,27.732,0,0,0-3.568,6.439l3.568-.26v-6.179Z" transform="translate(-3566.909 -7329.682)"/><path class="cls-1" d="M3621.368,7338.3c0.357-1.853.713-3.558,1-5.274,0.147-.871.481-1.345,1.066-1.26a1.1,1.1,0,0,1,.727,1.5c-0.677,3.237-1.383,6.469-2.071,9.7-0.182.854-.33,1.716-0.513,2.57a3.386,3.386,0,0,1-.3.884,0.8,0.8,0,0,1-1.433.143,3.574,3.574,0,0,1-.272-0.433c-0.27.067-.533,0.145-0.8,0.2a2.424,2.424,0,0,1-2.973-2.12,5.4,5.4,0,0,1,2.148-5.192A3.905,3.905,0,0,1,3621.368,7338.3Zm-1.025,1.616a3.446,3.446,0,0,0-2.879,3.623,0.834,0.834,0,0,0,.514.984,1.468,1.468,0,0,0,1.088-.312,4.917,4.917,0,0,0,1.256-1.6C3620.661,7341.781,3621.073,7340.855,3620.344,7339.918Z" transform="translate(-3566.909 -7329.682)"/><path class="cls-1" d="M3636.53,7339.422c1.342-.8,2.621-1.206,3.791.149l0.6-.335a2.318,2.318,0,0,1,3.634,1.65,9.368,9.368,0,0,1-.446,4.612,0.86,0.86,0,0,1-1.065.676,0.906,0.906,0,0,1-.539-1.212c0.159-.982.307-1.965,0.433-2.952a1.858,1.858,0,0,0-.072-0.739c-0.213-.724-0.646-0.861-1.253-0.4a2.223,2.223,0,0,0-1.035,1.657,34.977,34.977,0,0,1-.655,3.584,0.886,0.886,0,0,1-1.048.817,0.9,0.9,0,0,1-.718-1.128c0.167-.951.428-1.886,0.6-2.837a9.787,9.787,0,0,0,.177-1.945c-0.015-.576-0.3-0.741-0.815-0.46a22.04,22.04,0,0,0-2.183,1.424,1.214,1.214,0,0,0-.362.629c-0.254.866-.477,1.741-0.709,2.614-0.04.15-.046,0.311-0.1,0.456a0.847,0.847,0,0,1-.982.665,0.8,0.8,0,0,1-.646-0.9,6.86,6.86,0,0,1,.2-1.384c0.4-1.507.831-3,1.243-4.508A0.977,0.977,0,1,1,3636.53,7339.422Z" transform="translate(-3566.909 -7329.682)"/><path class="cls-1" d="M3628.818,7345.78c-0.349.233-.629,0.421-0.91,0.607a2.81,2.81,0,0,1-1.868.474,1.886,1.886,0,0,1-1.822-1.9,7.467,7.467,0,0,1,4.062-6.681,3.868,3.868,0,0,1,1.544-.18,7.724,7.724,0,0,1,1.26.208,0.966,0.966,0,0,1,.79,1.1,10.107,10.107,0,0,1-.232,1.191q-0.511,2.615-1.017,5.231a1.118,1.118,0,0,1-.072.454,1.855,1.855,0,0,1-.725.627,0.714,0.714,0,0,1-.849-0.56C3628.918,7346.2,3628.884,7346.024,3628.818,7345.78Zm1.068-5.836a1.068,1.068,0,0,0-1.3.137,5.94,5.94,0,0,0-2.608,4.046,2.967,2.967,0,0,0,.16.946c0.318-.075.64-0.138,0.953-0.232a0.82,0.82,0,0,0,.3-0.218A10.44,10.44,0,0,0,3629.886,7339.943Z" transform="translate(-3566.909 -7329.682)"/><path class="cls-1" d="M3650.826,7338.368a0.971,0.971,0,0,1-.671.75,5.338,5.338,0,0,0-1.249.786,0.9,0.9,0,0,0,0,1.451,4.375,4.375,0,0,1,.849,1.308,2.63,2.63,0,0,1-.759,3.054,16.527,16.527,0,0,1-1.4,1.077,0.755,0.755,0,0,1-1.024-.109,0.826,0.826,0,0,1-.082-1.112,2.371,2.371,0,0,1,.669-0.626c1.321-.857,1.4-1.465.326-2.564a2.256,2.256,0,0,1-.487-2.738,4.123,4.123,0,0,1,2.477-2.141A0.939,0.939,0,0,1,3650.826,7338.368Z" transform="translate(-3566.909 -7329.682)"/></svg>
